<svg width="340" height="380" viewBox="0 0 340 380" fill="none" xmlns="http://www.w3.org/2000/svg">
<g filter="url(#filter0_d_1183_23031)">
<rect x="58" y="52" width="224.125" height="264.875" rx="24" fill="white" shape-rendering="crispEdges"/>
<path d="M84.6359 73.9534C84.6359 74.4333 84.5227 74.8861 84.2963 75.3117C84.0699 75.7373 83.7077 76.0859 83.2096 76.3576C82.7116 76.6202 82.0732 76.7515 81.2944 76.7515H79.5829V80.582H78.0344V71.1416H81.2944C82.0188 71.1416 82.6301 71.2684 83.1281 71.5219C83.6352 71.7664 84.011 72.1015 84.2555 72.5271C84.5091 72.9527 84.6359 73.4281 84.6359 73.9534ZM81.2944 75.4883C81.883 75.4883 82.3222 75.357 82.612 75.0944C82.9017 74.8227 83.0466 74.4424 83.0466 73.9534C83.0466 72.921 82.4625 72.4049 81.2944 72.4049H79.5829V75.4883H81.2944ZM88.68 80.7043C87.9737 80.7043 87.3352 80.5458 86.7647 80.2289C86.1942 79.9029 85.746 79.4501 85.42 78.8705C85.094 78.2819 84.931 77.6028 84.931 76.833C84.931 76.0724 85.0985 75.3977 85.4336 74.8091C85.7686 74.2205 86.2259 73.7677 86.8055 73.4508C87.385 73.1338 88.0325 72.9754 88.7479 72.9754C89.4633 72.9754 90.1108 73.1338 90.6903 73.4508C91.2699 73.7677 91.7272 74.2205 92.0622 74.8091C92.3973 75.3977 92.5648 76.0724 92.5648 76.833C92.5648 77.5937 92.3928 78.2683 92.0487 78.8569C91.7046 79.4456 91.2337 79.9029 90.636 80.2289C90.0474 80.5458 89.3954 80.7043 88.68 80.7043ZM88.68 79.3595C89.0784 79.3595 89.4497 79.2644 89.7938 79.0743C90.147 78.8841 90.4322 78.5989 90.6496 78.2185C90.8669 77.8382 90.9756 77.3764 90.9756 76.833C90.9756 76.2897 90.8714 75.8324 90.6632 75.4611C90.4549 75.0808 90.1787 74.7955 89.8346 74.6054C89.4905 74.4152 89.1192 74.3201 88.7207 74.3201C88.3223 74.3201 87.951 74.4152 87.6069 74.6054C87.2719 74.7955 87.0047 75.0808 86.8055 75.4611C86.6063 75.8324 86.5067 76.2897 86.5067 76.833C86.5067 77.639 86.7104 78.2638 87.1179 78.7075C87.5345 79.1422 88.0552 79.3595 88.68 79.3595ZM94.9649 74.1843C95.1913 73.8039 95.4902 73.5096 95.8614 73.3014C96.2418 73.084 96.69 72.9754 97.2062 72.9754V74.5782H96.8123C96.2056 74.5782 95.7437 74.7321 95.4268 75.04C95.1189 75.3479 94.9649 75.8822 94.9649 76.6429V80.582H93.4164V73.0976H94.9649V74.1843ZM99.757 74.3609V78.5038C99.757 78.7845 99.8204 78.9883 99.9472 79.115C100.083 79.2328 100.309 79.2916 100.626 79.2916H101.577V80.582H100.355C99.6574 80.582 99.1231 80.419 98.7518 80.093C98.3805 79.767 98.1949 79.2373 98.1949 78.5038V74.3609H97.312V73.0976H98.1949V71.2367H99.757V73.0976H101.577V74.3609H99.757ZM105.463 74.3609H104.077V80.582H102.515V74.3609H101.632V73.0976H102.515V72.5679C102.515 71.7076 102.742 71.0828 103.195 70.6934C103.656 70.2949 104.376 70.0957 105.354 70.0957V71.3861C104.883 71.3861 104.553 71.4767 104.363 71.6578C104.173 71.8298 104.077 72.1332 104.077 72.5679V73.0976H105.463V74.3609ZM109.403 80.7043C108.696 80.7043 108.058 80.5458 107.487 80.2289C106.917 79.9029 106.469 79.4501 106.143 78.8705C105.817 78.2819 105.654 77.6028 105.654 76.833C105.654 76.0724 105.821 75.3977 106.156 74.8091C106.491 74.2205 106.948 73.7677 107.528 73.4508C108.108 73.1338 108.755 72.9754 109.47 72.9754C110.186 72.9754 110.833 73.1338 111.413 73.4508C111.992 73.7677 112.45 74.2205 112.785 74.8091C113.12 75.3977 113.287 76.0724 113.287 76.833C113.287 77.5937 113.115 78.2683 112.771 78.8569C112.427 79.4456 111.956 79.9029 111.359 80.2289C110.77 80.5458 110.118 80.7043 109.403 80.7043ZM109.403 79.3595C109.801 79.3595 110.172 79.2644 110.516 79.0743C110.87 78.8841 111.155 78.5989 111.372 78.2185C111.589 77.8382 111.698 77.3764 111.698 76.833C111.698 76.2897 111.594 75.8324 111.386 75.4611C111.177 75.0808 110.901 74.7955 110.557 74.6054C110.213 74.4152 109.842 74.3201 109.443 74.3201C109.045 74.3201 108.674 74.4152 108.329 74.6054C107.994 74.7955 107.727 75.0808 107.528 75.4611C107.329 75.8324 107.229 76.2897 107.229 76.833C107.229 77.639 107.433 78.2638 107.84 78.7075C108.257 79.1422 108.778 79.3595 109.403 79.3595ZM115.687 70.5304V80.582H114.139V70.5304H115.687ZM117.829 72.106C117.548 72.106 117.313 72.0109 117.123 71.8208C116.933 71.6306 116.838 71.3952 116.838 71.1144C116.838 70.8337 116.933 70.5983 117.123 70.4081C117.313 70.2179 117.548 70.1229 117.829 70.1229C118.101 70.1229 118.332 70.2179 118.522 70.4081C118.712 70.5983 118.807 70.8337 118.807 71.1144C118.807 71.3952 118.712 71.6306 118.522 71.8208C118.332 72.0109 118.101 72.106 117.829 72.106ZM118.59 73.0976V80.582H117.041V73.0976H118.59ZM123.19 80.7043C122.484 80.7043 121.845 80.5458 121.275 80.2289C120.704 79.9029 120.256 79.4501 119.93 78.8705C119.604 78.2819 119.441 77.6028 119.441 76.833C119.441 76.0724 119.609 75.3977 119.944 74.8091C120.279 74.2205 120.736 73.7677 121.316 73.4508C121.895 73.1338 122.543 72.9754 123.258 72.9754C123.973 72.9754 124.621 73.1338 125.2 73.4508C125.78 73.7677 126.237 74.2205 126.572 74.8091C126.907 75.3977 127.075 76.0724 127.075 76.833C127.075 77.5937 126.903 78.2683 126.559 78.8569C126.215 79.4456 125.744 79.9029 125.146 80.2289C124.558 80.5458 123.906 80.7043 123.19 80.7043ZM123.19 79.3595C123.589 79.3595 123.96 79.2644 124.304 79.0743C124.657 78.8841 124.942 78.5989 125.16 78.2185C125.377 77.8382 125.486 77.3764 125.486 76.833C125.486 76.2897 125.382 75.8324 125.173 75.4611C124.965 75.0808 124.689 74.7955 124.345 74.6054C124.001 74.4152 123.629 74.3201 123.231 74.3201C122.832 74.3201 122.461 74.4152 122.117 74.6054C121.782 74.7955 121.515 75.0808 121.316 75.4611C121.116 75.8324 121.017 76.2897 121.017 76.833C121.017 77.639 121.221 78.2638 121.628 78.7075C122.045 79.1422 122.565 79.3595 123.19 79.3595Z" fill="#6438D6"/>
<path d="M92.2028 112.64C92.2028 113.571 91.9702 114.446 91.5049 115.265C91.0582 116.083 90.3882 116.772 89.4948 117.33C88.62 117.889 87.5778 118.224 86.368 118.335V120.597H84.5534V118.335C82.8039 118.168 81.3894 117.619 80.3099 116.688C79.2304 115.758 78.6907 114.529 78.6907 113.003H82.0966C82.1525 113.729 82.3851 114.334 82.7946 114.818C83.204 115.283 83.7903 115.581 84.5534 115.711V109.569C83.3064 109.253 82.2921 108.937 81.5104 108.62C80.7287 108.285 80.0586 107.764 79.5003 107.057C78.9606 106.35 78.6907 105.382 78.6907 104.153C78.6907 102.609 79.2304 101.334 80.3099 100.329C81.3894 99.305 82.8039 98.7094 84.5534 98.5419V96.2806H86.368V98.5419C88.0059 98.6908 89.318 99.2119 90.3044 100.105C91.3094 100.98 91.8771 102.19 92.0074 103.735H88.6014C88.5456 103.158 88.3223 102.646 87.9314 102.199C87.5406 101.734 87.0194 101.417 86.368 101.25V107.28C87.615 107.578 88.6294 107.894 89.411 108.229C90.1927 108.546 90.8535 109.058 91.3932 109.765C91.9329 110.453 92.2028 111.412 92.2028 112.64ZM81.9291 103.986C81.9291 104.749 82.1525 105.344 82.5991 105.773C83.0644 106.201 83.7159 106.545 84.5534 106.805V101.166C83.7531 101.259 83.111 101.548 82.6271 102.032C82.1618 102.515 81.9291 103.167 81.9291 103.986ZM86.368 115.711C87.1869 115.581 87.829 115.255 88.2943 114.734C88.7596 114.194 88.9923 113.552 88.9923 112.808C88.9923 112.063 88.7596 111.486 88.2943 111.077C87.8477 110.649 87.2056 110.305 86.368 110.044V115.711ZM99.4165 112.64C99.6026 113.571 100.003 114.278 100.617 114.762C101.231 115.246 102.059 115.488 103.102 115.488C104.423 115.488 105.391 114.967 106.005 113.924C106.619 112.882 106.926 111.105 106.926 108.592C106.48 109.225 105.847 109.718 105.028 110.072C104.228 110.407 103.353 110.574 102.404 110.574C101.194 110.574 100.096 110.332 99.1094 109.849C98.1229 109.346 97.3412 108.611 96.7643 107.643C96.2059 106.657 95.9268 105.465 95.9268 104.07C95.9268 102.022 96.5223 100.394 97.7135 99.184C98.9232 97.9556 100.58 97.3414 102.683 97.3414C105.214 97.3414 107.01 98.1883 108.071 99.8819C109.15 101.557 109.69 104.135 109.69 107.615C109.69 110.016 109.485 111.98 109.076 113.506C108.685 115.032 107.996 116.186 107.01 116.968C106.024 117.749 104.656 118.14 102.906 118.14C100.915 118.14 99.3792 117.619 98.2998 116.577C97.2203 115.534 96.6154 114.222 96.4851 112.64H99.4165ZM102.962 107.894C104.079 107.894 104.953 107.55 105.586 106.861C106.238 106.154 106.563 105.224 106.563 104.07C106.563 102.785 106.219 101.79 105.53 101.082C104.86 100.357 103.939 99.9936 102.767 99.9936C101.594 99.9936 100.663 100.366 99.9748 101.11C99.3048 101.836 98.9698 102.795 98.9698 103.986C98.9698 105.121 99.2955 106.061 99.9469 106.805C100.617 107.531 101.622 107.894 102.962 107.894ZM122.721 102.534C122.516 101.678 122.144 101.036 121.604 100.608C121.065 100.18 120.311 99.9657 119.343 99.9657C117.873 99.9657 116.775 100.533 116.049 101.669C115.323 102.785 114.941 104.647 114.904 107.252C115.388 106.433 116.095 105.8 117.026 105.354C117.957 104.907 118.962 104.684 120.041 104.684C121.269 104.684 122.349 104.954 123.279 105.493C124.229 106.015 124.964 106.778 125.485 107.783C126.025 108.788 126.295 109.988 126.295 111.384C126.295 112.687 126.034 113.85 125.513 114.874C125.01 115.897 124.257 116.707 123.252 117.303C122.247 117.879 121.037 118.168 119.622 118.168C117.705 118.168 116.198 117.749 115.1 116.912C114.02 116.056 113.257 114.855 112.81 113.31C112.382 111.766 112.168 109.839 112.168 107.531C112.168 100.719 114.569 97.3135 119.371 97.3135C121.232 97.3135 122.693 97.816 123.754 98.8211C124.834 99.8261 125.466 101.064 125.652 102.534H122.721ZM119.343 107.364C118.208 107.364 117.24 107.708 116.44 108.397C115.658 109.067 115.267 110.044 115.267 111.328C115.267 112.612 115.63 113.636 116.356 114.399C117.1 115.144 118.133 115.516 119.455 115.516C120.627 115.516 121.549 115.153 122.219 114.427C122.907 113.701 123.252 112.733 123.252 111.524C123.252 110.258 122.917 109.253 122.247 108.508C121.595 107.745 120.627 107.364 119.343 107.364ZM132.202 114.343L128.824 122.049H126.758L128.74 114.343H132.202ZM134.927 113.841C136.714 112.296 138.119 111.03 139.143 110.044C140.185 109.039 141.05 107.997 141.739 106.917C142.428 105.838 142.772 104.758 142.772 103.679C142.772 102.562 142.502 101.687 141.962 101.054C141.441 100.422 140.613 100.105 139.478 100.105C138.379 100.105 137.523 100.459 136.909 101.166C136.314 101.855 135.997 102.785 135.96 103.958H132.889C132.945 101.836 133.578 100.217 134.787 99.1002C136.016 97.9649 137.57 97.3973 139.45 97.3973C141.478 97.3973 143.06 97.9556 144.196 99.0723C145.35 100.189 145.927 101.678 145.927 103.539C145.927 104.879 145.582 106.173 144.894 107.42C144.224 108.648 143.414 109.755 142.465 110.742C141.534 111.71 140.343 112.836 138.891 114.12L137.635 115.237H146.485V117.889H132.917V115.572L134.927 113.841ZM161.006 100.552H151.654V106.108C152.045 105.586 152.622 105.149 153.385 104.795C154.166 104.442 154.995 104.265 155.869 104.265C157.433 104.265 158.698 104.6 159.666 105.27C160.653 105.94 161.351 106.787 161.76 107.811C162.188 108.834 162.402 109.914 162.402 111.049C162.402 112.426 162.132 113.655 161.592 114.734C161.071 115.795 160.28 116.632 159.219 117.247C158.177 117.861 156.893 118.168 155.367 118.168C153.338 118.168 151.71 117.665 150.481 116.66C149.253 115.655 148.518 114.325 148.276 112.668H151.375C151.579 113.543 152.035 114.241 152.743 114.762C153.45 115.265 154.334 115.516 155.395 115.516C156.716 115.516 157.703 115.116 158.354 114.315C159.024 113.515 159.359 112.454 159.359 111.133C159.359 109.793 159.024 108.769 158.354 108.062C157.684 107.336 156.698 106.973 155.395 106.973C154.483 106.973 153.71 107.206 153.078 107.671C152.463 108.118 152.017 108.732 151.738 109.514H148.722V97.7602H161.006V100.552ZM164.319 107.727C164.319 104.507 164.859 101.994 165.938 100.189C167.037 98.3651 168.916 97.4531 171.578 97.4531C174.239 97.4531 176.11 98.3651 177.189 100.189C178.287 101.994 178.836 104.507 178.836 107.727C178.836 110.984 178.287 113.534 177.189 115.376C176.11 117.2 174.239 118.112 171.578 118.112C168.916 118.112 167.037 117.2 165.938 115.376C164.859 113.534 164.319 110.984 164.319 107.727ZM175.71 107.727C175.71 106.219 175.607 104.944 175.403 103.902C175.216 102.86 174.826 102.013 174.23 101.362C173.634 100.692 172.75 100.357 171.578 100.357C170.405 100.357 169.521 100.692 168.926 101.362C168.33 102.013 167.93 102.86 167.725 103.902C167.539 104.944 167.446 106.219 167.446 107.727C167.446 109.29 167.539 110.602 167.725 111.663C167.911 112.724 168.302 113.58 168.898 114.232C169.512 114.883 170.405 115.209 171.578 115.209C172.75 115.209 173.634 114.883 174.23 114.232C174.844 113.58 175.244 112.724 175.43 111.663C175.617 110.602 175.71 109.29 175.71 107.727Z" fill="#0D091F"/>
<path opacity="0.4" d="M78.6509 145.727V151.727H77.6669V145.727H78.6509ZM84.4401 151.727H83.456L80.4953 147.247V151.727H79.5113V145.719H80.4953L83.456 150.19V145.719H84.4401V151.727ZM90.4711 145.727L88.2182 151.727H87.0788L84.8173 145.727H85.8704L87.6485 150.717L89.4353 145.727H90.4711ZM91.8465 146.522V148.282H93.9181V149.085H91.8465V150.924H94.1771V151.727H90.8625V145.719H94.1771V146.522H91.8465ZM96.9342 151.787C96.5314 151.787 96.1689 151.718 95.8466 151.58C95.5244 151.436 95.2712 151.235 95.087 150.976C94.9029 150.717 94.8108 150.415 94.8108 150.069H95.8639C95.8869 150.328 95.9876 150.541 96.166 150.708C96.3501 150.875 96.6062 150.958 96.9342 150.958C97.2737 150.958 97.5384 150.878 97.7283 150.717C97.9182 150.55 98.0132 150.337 98.0132 150.078C98.0132 149.876 97.9528 149.712 97.8319 149.586C97.7168 149.459 97.5701 149.361 97.3917 149.292C97.2191 149.223 96.9774 149.149 96.6666 149.068C96.2753 148.964 95.9559 148.861 95.7085 148.757C95.4668 148.648 95.2596 148.481 95.087 148.257C94.9144 148.032 94.8281 147.733 94.8281 147.359C94.8281 147.014 94.9144 146.711 95.087 146.453C95.2596 146.194 95.5013 145.995 95.8121 145.857C96.1228 145.719 96.4825 145.65 96.8911 145.65C97.4723 145.65 97.947 145.797 98.3153 146.09C98.6894 146.378 98.8965 146.775 98.9368 147.281H97.8492C97.8319 147.063 97.7283 146.875 97.5384 146.72C97.3485 146.565 97.0982 146.487 96.7875 146.487C96.5055 146.487 96.2753 146.559 96.0969 146.703C95.9185 146.847 95.8293 147.054 95.8293 147.324C95.8293 147.508 95.884 147.661 95.9933 147.782C96.1084 147.897 96.2523 147.989 96.4249 148.058C96.5976 148.127 96.8335 148.202 97.1327 148.282C97.5298 148.392 97.8521 148.501 98.0995 148.61C98.3527 148.72 98.5656 148.89 98.7383 149.12C98.9167 149.344 99.0059 149.646 99.0059 150.026C99.0059 150.331 98.9224 150.619 98.7555 150.889C98.5944 151.16 98.3556 151.378 98.0391 151.545C97.7283 151.706 97.3601 151.787 96.9342 151.787ZM103.611 145.727V146.53H102.014V151.727H101.03V146.53H99.4246V145.727H103.611ZM105.16 146.522V148.282H107.232V149.085H105.16V150.924H107.491V151.727H104.176V145.719H107.491V146.522H105.16ZM110.231 145.727C110.869 145.727 111.427 145.851 111.905 146.099C112.388 146.34 112.76 146.691 113.019 147.152C113.283 147.606 113.416 148.139 113.416 148.749C113.416 149.359 113.283 149.888 113.019 150.337C112.76 150.786 112.388 151.131 111.905 151.373C111.427 151.609 110.869 151.727 110.231 151.727H108.271V145.727H110.231ZM110.231 150.924C110.933 150.924 111.471 150.734 111.845 150.354C112.219 149.974 112.406 149.439 112.406 148.749C112.406 148.052 112.219 147.508 111.845 147.117C111.471 146.726 110.933 146.53 110.231 146.53H109.255V150.924H110.231Z" fill="#0D091F"/>
<path opacity="0.4" d="M167.099 151.727L165.718 149.327H164.967V151.727H163.983V145.727H166.055C166.515 145.727 166.904 145.808 167.22 145.969C167.543 146.13 167.781 146.346 167.937 146.617C168.098 146.887 168.178 147.189 168.178 147.523C168.178 147.914 168.063 148.271 167.833 148.593C167.609 148.91 167.261 149.126 166.789 149.241L168.273 151.727H167.099ZM164.967 148.541H166.055C166.423 148.541 166.699 148.449 166.884 148.265C167.074 148.081 167.168 147.834 167.168 147.523C167.168 147.212 167.076 146.97 166.892 146.798C166.708 146.619 166.429 146.53 166.055 146.53H164.967V148.541ZM169.99 146.522V148.282H172.061V149.085H169.99V150.924H172.32V151.727H169.006V145.719H172.32V146.522H169.99ZM176.976 145.727V146.53H175.379V151.727H174.395V146.53H172.79V145.727H176.976ZM178.517 145.727V149.551C178.517 150.006 178.635 150.348 178.871 150.579C179.112 150.809 179.446 150.924 179.872 150.924C180.304 150.924 180.637 150.809 180.873 150.579C181.115 150.348 181.236 150.006 181.236 149.551V145.727H182.22V149.534C182.22 150.023 182.113 150.438 181.9 150.777C181.688 151.117 181.403 151.37 181.046 151.537C180.689 151.704 180.295 151.787 179.863 151.787C179.432 151.787 179.038 151.704 178.681 151.537C178.33 151.37 178.051 151.117 177.843 150.777C177.636 150.438 177.533 150.023 177.533 149.534V145.727H178.517ZM186.186 151.727L184.804 149.327H184.053V151.727H183.069V145.727H185.141C185.601 145.727 185.99 145.808 186.306 145.969C186.629 146.13 186.867 146.346 187.023 146.617C187.184 146.887 187.264 147.189 187.264 147.523C187.264 147.914 187.149 148.271 186.919 148.593C186.695 148.91 186.347 149.126 185.875 149.241L187.359 151.727H186.186ZM184.053 148.541H185.141C185.509 148.541 185.786 148.449 185.97 148.265C186.16 148.081 186.255 147.834 186.255 147.523C186.255 147.212 186.162 146.97 185.978 146.798C185.794 146.619 185.515 146.53 185.141 146.53H184.053V148.541ZM193.02 151.727H192.036L189.076 147.247V151.727H188.092V145.719H189.076L192.036 150.19V145.719H193.02V151.727Z" fill="#0D091F"/>
<path d="M84.8457 169.148C84.8457 169.627 84.7258 170.078 84.4861 170.5C84.2559 170.922 83.9106 171.277 83.4502 171.565C82.9995 171.852 82.4624 172.025 81.839 172.082V173.248H80.9039V172.082C80.0023 171.996 79.2734 171.713 78.7171 171.234C78.1608 170.754 77.8827 170.121 77.8827 169.335H79.6379C79.6666 169.709 79.7865 170.02 79.9975 170.27C80.2085 170.51 80.5106 170.663 80.9039 170.73V167.565C80.2613 167.402 79.7386 167.239 79.3357 167.076C78.9329 166.903 78.5876 166.635 78.2999 166.27C78.0218 165.906 77.8827 165.407 77.8827 164.774C77.8827 163.978 78.1608 163.321 78.7171 162.803C79.2734 162.276 80.0023 161.969 80.9039 161.882V160.717H81.839V161.882C82.683 161.959 83.3591 162.228 83.8674 162.688C84.3854 163.139 84.6779 163.762 84.745 164.558H82.9899C82.9611 164.261 82.846 163.997 82.6446 163.767C82.4432 163.527 82.1746 163.364 81.839 163.278V166.385C82.4816 166.539 83.0043 166.702 83.4071 166.875C83.8099 167.038 84.1504 167.301 84.4285 167.666C84.7066 168.021 84.8457 168.515 84.8457 169.148ZM79.5515 164.688C79.5515 165.081 79.6666 165.388 79.8968 165.609C80.1366 165.829 80.4723 166.007 80.9039 166.141V163.235C80.4914 163.283 80.1606 163.431 79.9112 163.681C79.6714 163.93 79.5515 164.266 79.5515 164.688ZM81.839 170.73C82.261 170.663 82.5919 170.495 82.8316 170.227C83.0714 169.948 83.1913 169.618 83.1913 169.234C83.1913 168.85 83.0714 168.553 82.8316 168.342C82.6014 168.121 82.2706 167.944 81.839 167.81V170.73ZM88.2897 166.515C87.2922 166.016 86.7935 165.23 86.7935 164.156C86.7935 163.638 86.923 163.163 87.1819 162.731C87.4409 162.3 87.8293 161.959 88.3472 161.71C88.8651 161.451 89.4981 161.321 90.2462 161.321C90.9847 161.321 91.6129 161.451 92.1308 161.71C92.6583 161.959 93.0516 162.3 93.3105 162.731C93.5695 163.163 93.699 163.638 93.699 164.156C93.699 164.693 93.5599 165.167 93.2817 165.58C93.0132 165.983 92.6535 166.294 92.2028 166.515C92.7495 166.716 93.181 167.047 93.4975 167.508C93.814 167.958 93.9723 168.491 93.9723 169.104C93.9723 169.728 93.814 170.279 93.4975 170.759C93.181 171.238 92.7399 171.608 92.174 171.867C91.6081 172.126 90.9655 172.255 90.2462 172.255C89.5269 172.255 88.8843 172.126 88.3184 171.867C87.7622 171.608 87.3258 171.238 87.0093 170.759C86.6928 170.279 86.5345 169.728 86.5345 169.104C86.5345 168.481 86.6928 167.944 87.0093 167.493C87.3258 167.042 87.7526 166.716 88.2897 166.515ZM92.1308 164.357C92.1308 163.82 91.963 163.407 91.6273 163.12C91.2916 162.832 90.8313 162.688 90.2462 162.688C89.6708 162.688 89.2152 162.832 88.8795 163.12C88.5438 163.407 88.376 163.825 88.376 164.371C88.376 164.851 88.5486 165.244 88.8939 165.551C89.2488 165.848 89.6995 165.997 90.2462 165.997C90.7929 165.997 91.2437 165.844 91.5985 165.537C91.9534 165.23 92.1308 164.836 92.1308 164.357ZM90.2462 167.234C89.6132 167.234 89.0953 167.392 88.6925 167.709C88.2993 168.016 88.1027 168.462 88.1027 169.047C88.1027 169.594 88.2945 170.04 88.6781 170.385C89.0617 170.721 89.5844 170.888 90.2462 170.888C90.8984 170.888 91.4115 170.716 91.7856 170.37C92.1692 170.025 92.361 169.584 92.361 169.047C92.361 168.471 92.1644 168.025 91.7712 167.709C91.3875 167.392 90.8792 167.234 90.2462 167.234ZM96.7445 166.515C95.747 166.016 95.2483 165.23 95.2483 164.156C95.2483 163.638 95.3778 163.163 95.6367 162.731C95.8957 162.3 96.2841 161.959 96.802 161.71C97.3199 161.451 97.9529 161.321 98.701 161.321C99.4395 161.321 100.068 161.451 100.586 161.71C101.113 161.959 101.506 162.3 101.765 162.731C102.024 163.163 102.154 163.638 102.154 164.156C102.154 164.693 102.015 165.167 101.737 165.58C101.468 165.983 101.108 166.294 100.658 166.515C101.204 166.716 101.636 167.047 101.952 167.508C102.269 167.958 102.427 168.491 102.427 169.104C102.427 169.728 102.269 170.279 101.952 170.759C101.636 171.238 101.195 171.608 100.629 171.867C100.063 172.126 99.4203 172.255 98.701 172.255C97.9817 172.255 97.3391 172.126 96.7733 171.867C96.217 171.608 95.7806 171.238 95.4641 170.759C95.1476 170.279 94.9893 169.728 94.9893 169.104C94.9893 168.481 95.1476 167.944 95.4641 167.493C95.7806 167.042 96.2074 166.716 96.7445 166.515ZM100.586 164.357C100.586 163.82 100.418 163.407 100.082 163.12C99.7464 162.832 99.2861 162.688 98.701 162.688C98.1256 162.688 97.67 162.832 97.3343 163.12C96.9986 163.407 96.8308 163.825 96.8308 164.371C96.8308 164.851 97.0034 165.244 97.3487 165.551C97.7036 165.848 98.1543 165.997 98.701 165.997C99.2477 165.997 99.6985 165.844 100.053 165.537C100.408 165.23 100.586 164.836 100.586 164.357ZM98.701 167.234C98.068 167.234 97.5501 167.392 97.1473 167.709C96.7541 168.016 96.5575 168.462 96.5575 169.047C96.5575 169.594 96.7493 170.04 97.1329 170.385C97.5165 170.721 98.0393 170.888 98.701 170.888C99.3532 170.888 99.8663 170.716 100.24 170.37C100.624 170.025 100.816 169.584 100.816 169.047C100.816 168.471 100.619 168.025 100.226 167.709C99.8423 167.392 99.334 167.234 98.701 167.234ZM105.444 170.025L103.703 173.996H102.639L103.66 170.025H105.444ZM105.74 169.809V168.572L110.574 161.638H112.559V168.385H113.897V169.809H112.559V171.996H110.948V169.809H105.74ZM111.02 163.307L107.625 168.385H111.02V163.307ZM115.443 169.766C116.364 168.97 117.088 168.318 117.616 167.81C118.153 167.292 118.599 166.755 118.954 166.198C119.309 165.642 119.486 165.086 119.486 164.53C119.486 163.954 119.347 163.503 119.069 163.177C118.8 162.851 118.373 162.688 117.788 162.688C117.222 162.688 116.781 162.87 116.465 163.235C116.158 163.59 115.995 164.069 115.976 164.673H114.393C114.422 163.58 114.748 162.746 115.371 162.17C116.004 161.585 116.805 161.293 117.774 161.293C118.819 161.293 119.635 161.58 120.22 162.156C120.814 162.731 121.112 163.499 121.112 164.458C121.112 165.148 120.934 165.815 120.579 166.457C120.234 167.09 119.817 167.661 119.328 168.169C118.848 168.668 118.234 169.248 117.486 169.91L116.839 170.486H121.399V171.852H114.408V170.658L115.443 169.766ZM122.121 166.616C122.121 164.956 122.399 163.662 122.955 162.731C123.521 161.791 124.49 161.321 125.861 161.321C127.233 161.321 128.197 161.791 128.753 162.731C129.319 163.662 129.602 164.956 129.602 166.616C129.602 168.294 129.319 169.608 128.753 170.557C128.197 171.497 127.233 171.967 125.861 171.967C124.49 171.967 123.521 171.497 122.955 170.557C122.399 169.608 122.121 168.294 122.121 166.616ZM127.99 166.616C127.99 165.839 127.938 165.182 127.832 164.645C127.736 164.108 127.535 163.671 127.228 163.336C126.921 162.99 126.465 162.818 125.861 162.818C125.257 162.818 124.801 162.99 124.495 163.336C124.188 163.671 123.981 164.108 123.876 164.645C123.78 165.182 123.732 165.839 123.732 166.616C123.732 167.421 123.78 168.097 123.876 168.644C123.972 169.191 124.173 169.632 124.48 169.968C124.797 170.303 125.257 170.471 125.861 170.471C126.465 170.471 126.921 170.303 127.228 169.968C127.544 169.632 127.751 169.191 127.847 168.644C127.942 168.097 127.99 167.421 127.99 166.616Z" fill="#0D091F"/>
<path d="M171.162 169.148C171.162 169.627 171.042 170.078 170.802 170.5C170.572 170.922 170.227 171.277 169.767 171.565C169.316 171.852 168.779 172.025 168.155 172.082V173.248H167.22V172.082C166.319 171.996 165.59 171.713 165.034 171.234C164.477 170.754 164.199 170.121 164.199 169.335H165.954C165.983 169.709 166.103 170.02 166.314 170.27C166.525 170.51 166.827 170.663 167.22 170.73V167.565C166.578 167.402 166.055 167.239 165.652 167.076C165.249 166.903 164.904 166.635 164.616 166.27C164.338 165.906 164.199 165.407 164.199 164.774C164.199 163.978 164.477 163.321 165.034 162.803C165.59 162.276 166.319 161.969 167.22 161.882V160.717H168.155V161.882C168.999 161.959 169.676 162.228 170.184 162.688C170.702 163.139 170.994 163.762 171.061 164.558H169.306C169.278 164.261 169.162 163.997 168.961 163.767C168.76 163.527 168.491 163.364 168.155 163.278V166.385C168.798 166.539 169.321 166.702 169.723 166.875C170.126 167.038 170.467 167.301 170.745 167.666C171.023 168.021 171.162 168.515 171.162 169.148ZM165.868 164.688C165.868 165.081 165.983 165.388 166.213 165.609C166.453 165.829 166.789 166.007 167.22 166.141V163.235C166.808 163.283 166.477 163.431 166.228 163.681C165.988 163.93 165.868 164.266 165.868 164.688ZM168.155 170.73C168.577 170.663 168.908 170.495 169.148 170.227C169.388 169.948 169.508 169.618 169.508 169.234C169.508 168.85 169.388 168.553 169.148 168.342C168.918 168.121 168.587 167.944 168.155 167.81V170.73ZM178.476 163.94C178.371 163.499 178.179 163.168 177.901 162.947C177.622 162.726 177.234 162.616 176.735 162.616C175.978 162.616 175.412 162.909 175.038 163.494C174.664 164.069 174.467 165.028 174.448 166.371C174.697 165.949 175.062 165.623 175.541 165.393C176.021 165.163 176.539 165.047 177.095 165.047C177.728 165.047 178.284 165.187 178.764 165.465C179.253 165.733 179.632 166.126 179.9 166.644C180.178 167.162 180.317 167.781 180.317 168.5C180.317 169.172 180.183 169.771 179.915 170.299C179.656 170.826 179.267 171.243 178.749 171.55C178.231 171.847 177.608 171.996 176.879 171.996C175.891 171.996 175.114 171.78 174.549 171.349C173.992 170.908 173.599 170.289 173.369 169.493C173.148 168.697 173.038 167.704 173.038 166.515C173.038 163.005 174.275 161.249 176.75 161.249C177.709 161.249 178.462 161.508 179.008 162.026C179.565 162.544 179.891 163.182 179.987 163.94H178.476ZM176.735 166.429C176.15 166.429 175.651 166.606 175.239 166.961C174.836 167.306 174.635 167.81 174.635 168.471C174.635 169.133 174.822 169.661 175.196 170.054C175.58 170.438 176.112 170.629 176.793 170.629C177.397 170.629 177.872 170.442 178.217 170.068C178.572 169.694 178.749 169.196 178.749 168.572C178.749 167.92 178.577 167.402 178.231 167.018C177.896 166.625 177.397 166.429 176.735 166.429ZM183.362 170.025L181.621 173.996H180.556L181.578 170.025H183.362ZM189.499 163.94C189.394 163.499 189.202 163.168 188.924 162.947C188.645 162.726 188.257 162.616 187.758 162.616C187.001 162.616 186.435 162.909 186.061 163.494C185.687 164.069 185.49 165.028 185.471 166.371C185.72 165.949 186.085 165.623 186.564 165.393C187.044 165.163 187.562 165.047 188.118 165.047C188.751 165.047 189.307 165.187 189.787 165.465C190.276 165.733 190.655 166.126 190.923 166.644C191.201 167.162 191.34 167.781 191.34 168.5C191.34 169.172 191.206 169.771 190.938 170.299C190.679 170.826 190.29 171.243 189.772 171.55C189.254 171.847 188.631 171.996 187.902 171.996C186.914 171.996 186.137 171.78 185.572 171.349C185.015 170.908 184.622 170.289 184.392 169.493C184.171 168.697 184.061 167.704 184.061 166.515C184.061 163.005 185.298 161.249 187.773 161.249C188.732 161.249 189.485 161.508 190.031 162.026C190.588 162.544 190.914 163.182 191.01 163.94H189.499ZM187.758 166.429C187.173 166.429 186.674 166.606 186.262 166.961C185.859 167.306 185.658 167.81 185.658 168.471C185.658 169.133 185.845 169.661 186.219 170.054C186.603 170.438 187.135 170.629 187.816 170.629C188.42 170.629 188.895 170.442 189.24 170.068C189.595 169.694 189.772 169.196 189.772 168.572C189.772 167.92 189.6 167.402 189.254 167.018C188.919 166.625 188.42 166.429 187.758 166.429ZM192.342 164.098C192.399 163.206 192.74 162.511 193.363 162.012C193.996 161.513 194.802 161.264 195.78 161.264C196.451 161.264 197.032 161.384 197.521 161.624C198.01 161.863 198.379 162.189 198.629 162.602C198.878 163.014 199.003 163.479 199.003 163.997C199.003 164.592 198.844 165.1 198.528 165.522C198.211 165.944 197.833 166.227 197.391 166.371V166.429C197.957 166.601 198.398 166.918 198.715 167.378C199.031 167.829 199.19 168.409 199.19 169.119C199.19 169.685 199.06 170.188 198.801 170.629C198.542 171.071 198.159 171.421 197.65 171.68C197.142 171.929 196.533 172.054 195.823 172.054C194.787 172.054 193.934 171.79 193.263 171.262C192.601 170.725 192.246 169.958 192.198 168.961H193.78C193.819 169.469 194.015 169.886 194.37 170.212C194.725 170.529 195.205 170.687 195.809 170.687C196.394 170.687 196.845 170.529 197.161 170.212C197.478 169.886 197.636 169.469 197.636 168.961C197.636 168.289 197.42 167.814 196.989 167.536C196.567 167.249 195.914 167.105 195.032 167.105H194.658V165.752H195.046C195.823 165.743 196.413 165.613 196.816 165.364C197.228 165.115 197.435 164.721 197.435 164.184C197.435 163.724 197.286 163.359 196.989 163.091C196.691 162.813 196.269 162.674 195.723 162.674C195.185 162.674 194.768 162.813 194.471 163.091C194.174 163.359 193.996 163.695 193.939 164.098H192.342ZM201.099 169.766C202.02 168.97 202.744 168.318 203.272 167.81C203.809 167.292 204.255 166.755 204.61 166.198C204.965 165.642 205.142 165.086 205.142 164.53C205.142 163.954 205.003 163.503 204.725 163.177C204.456 162.851 204.029 162.688 203.444 162.688C202.879 162.688 202.437 162.87 202.121 163.235C201.814 163.59 201.651 164.069 201.632 164.673H200.049C200.078 163.58 200.404 162.746 201.028 162.17C201.661 161.585 202.461 161.293 203.43 161.293C204.475 161.293 205.291 161.58 205.876 162.156C206.47 162.731 206.768 163.499 206.768 164.458C206.768 165.148 206.59 165.815 206.235 166.457C205.89 167.09 205.473 167.661 204.984 168.169C204.504 168.668 203.89 169.248 203.142 169.91L202.495 170.486H207.055V171.852H200.064V170.658L201.099 169.766Z" fill="#0D091F"/>
<rect x="216.566" y="158.676" width="31.3432" height="17.2636" rx="8.63182" fill="#32B153" fill-opacity="0.1"/>
<path d="M222.265 167.13C221.687 166.841 221.397 166.385 221.397 165.762C221.397 165.461 221.472 165.186 221.623 164.936C221.773 164.685 221.998 164.488 222.298 164.343C222.599 164.193 222.966 164.118 223.4 164.118C223.828 164.118 224.192 164.193 224.493 164.343C224.799 164.488 225.027 164.685 225.177 164.936C225.327 165.186 225.402 165.461 225.402 165.762C225.402 166.073 225.321 166.348 225.16 166.588C225.004 166.821 224.796 167.002 224.534 167.13C224.851 167.247 225.102 167.439 225.285 167.706C225.469 167.967 225.561 168.276 225.561 168.632C225.561 168.993 225.469 169.313 225.285 169.591C225.102 169.869 224.846 170.083 224.518 170.234C224.19 170.384 223.817 170.459 223.4 170.459C222.983 170.459 222.61 170.384 222.282 170.234C221.959 170.083 221.706 169.869 221.523 169.591C221.339 169.313 221.247 168.993 221.247 168.632C221.247 168.27 221.339 167.959 221.523 167.697C221.706 167.436 221.954 167.247 222.265 167.13ZM224.493 165.878C224.493 165.567 224.395 165.328 224.201 165.161C224.006 164.994 223.739 164.911 223.4 164.911C223.066 164.911 222.802 164.994 222.607 165.161C222.412 165.328 222.315 165.57 222.315 165.887C222.315 166.165 222.415 166.393 222.615 166.571C222.821 166.743 223.083 166.829 223.4 166.829C223.717 166.829 223.978 166.741 224.184 166.563C224.39 166.385 224.493 166.156 224.493 165.878ZM223.4 167.547C223.033 167.547 222.732 167.639 222.499 167.822C222.271 168 222.157 168.259 222.157 168.598C222.157 168.915 222.268 169.174 222.49 169.374C222.713 169.569 223.016 169.666 223.4 169.666C223.778 169.666 224.076 169.566 224.292 169.366C224.515 169.166 224.626 168.91 224.626 168.598C224.626 168.265 224.512 168.006 224.284 167.822C224.062 167.639 223.767 167.547 223.4 167.547ZM226.651 170.367C226.479 170.367 226.334 170.309 226.217 170.192C226.1 170.075 226.042 169.93 226.042 169.758C226.042 169.586 226.1 169.441 226.217 169.324C226.334 169.207 226.479 169.149 226.651 169.149C226.818 169.149 226.96 169.207 227.077 169.324C227.193 169.441 227.252 169.586 227.252 169.758C227.252 169.93 227.193 170.075 227.077 170.192C226.96 170.309 226.818 170.367 226.651 170.367ZM228.764 167.13C228.185 166.841 227.896 166.385 227.896 165.762C227.896 165.461 227.971 165.186 228.121 164.936C228.271 164.685 228.497 164.488 228.797 164.343C229.097 164.193 229.464 164.118 229.898 164.118C230.327 164.118 230.691 164.193 230.991 164.343C231.297 164.488 231.525 164.685 231.675 164.936C231.826 165.186 231.901 165.461 231.901 165.762C231.901 166.073 231.82 166.348 231.659 166.588C231.503 166.821 231.294 167.002 231.033 167.13C231.35 167.247 231.6 167.439 231.784 167.706C231.967 167.967 232.059 168.276 232.059 168.632C232.059 168.993 231.967 169.313 231.784 169.591C231.6 169.869 231.344 170.083 231.016 170.234C230.688 170.384 230.315 170.459 229.898 170.459C229.481 170.459 229.108 170.384 228.78 170.234C228.458 170.083 228.205 169.869 228.021 169.591C227.838 169.313 227.746 168.993 227.746 168.632C227.746 168.27 227.838 167.959 228.021 167.697C228.205 167.436 228.452 167.247 228.764 167.13ZM230.991 165.878C230.991 165.567 230.894 165.328 230.699 165.161C230.505 164.994 230.238 164.911 229.898 164.911C229.565 164.911 229.3 164.994 229.106 165.161C228.911 165.328 228.814 165.57 228.814 165.887C228.814 166.165 228.914 166.393 229.114 166.571C229.32 166.743 229.581 166.829 229.898 166.829C230.215 166.829 230.477 166.741 230.683 166.563C230.888 166.385 230.991 166.156 230.991 165.878ZM229.898 167.547C229.531 167.547 229.231 167.639 228.997 167.822C228.769 168 228.655 168.259 228.655 168.598C228.655 168.915 228.766 169.174 228.989 169.374C229.211 169.569 229.515 169.666 229.898 169.666C230.277 169.666 230.574 169.566 230.791 169.366C231.013 169.166 231.125 168.91 231.125 168.598C231.125 168.265 231.011 168.006 230.783 167.822C230.56 167.639 230.265 167.547 229.898 167.547ZM233.825 168.657C233.881 168.935 234.001 169.146 234.184 169.291C234.368 169.435 234.615 169.508 234.927 169.508C235.322 169.508 235.611 169.352 235.794 169.04C235.978 168.729 236.07 168.198 236.07 167.447C235.936 167.636 235.747 167.783 235.502 167.889C235.263 167.989 235.002 168.039 234.718 168.039C234.357 168.039 234.028 167.967 233.734 167.822C233.439 167.672 233.205 167.452 233.033 167.163C232.866 166.868 232.782 166.512 232.782 166.095C232.782 165.483 232.96 164.997 233.316 164.635C233.678 164.268 234.173 164.085 234.802 164.085C235.558 164.085 236.095 164.338 236.412 164.844C236.734 165.344 236.896 166.115 236.896 167.155C236.896 167.872 236.834 168.459 236.712 168.915C236.595 169.371 236.39 169.716 236.095 169.95C235.8 170.183 235.391 170.3 234.868 170.3C234.273 170.3 233.814 170.145 233.492 169.833C233.169 169.522 232.988 169.129 232.949 168.657H233.825ZM234.885 167.238C235.219 167.238 235.48 167.135 235.669 166.93C235.864 166.718 235.961 166.44 235.961 166.095C235.961 165.712 235.858 165.414 235.653 165.203C235.452 164.986 235.177 164.877 234.827 164.877C234.476 164.877 234.198 164.988 233.992 165.211C233.792 165.428 233.692 165.714 233.692 166.07C233.692 166.41 233.789 166.69 233.984 166.913C234.184 167.13 234.484 167.238 234.885 167.238ZM237.369 165.695C237.369 165.289 237.486 164.972 237.72 164.744C237.959 164.51 238.265 164.393 238.637 164.393C239.01 164.393 239.313 164.51 239.547 164.744C239.786 164.972 239.906 165.289 239.906 165.695C239.906 166.101 239.786 166.421 239.547 166.654C239.313 166.888 239.01 167.005 238.637 167.005C238.265 167.005 237.959 166.888 237.72 166.654C237.486 166.421 237.369 166.101 237.369 165.695ZM242.459 164.502L239.13 170.309H238.195L241.524 164.502H242.459ZM238.637 164.969C238.287 164.969 238.112 165.211 238.112 165.695C238.112 166.184 238.287 166.429 238.637 166.429C238.804 166.429 238.932 166.371 239.021 166.254C239.116 166.131 239.163 165.945 239.163 165.695C239.163 165.211 238.988 164.969 238.637 164.969ZM240.765 169.107C240.765 168.701 240.882 168.384 241.115 168.156C241.355 167.922 241.66 167.806 242.033 167.806C242.4 167.806 242.701 167.922 242.934 168.156C243.173 168.384 243.293 168.701 243.293 169.107C243.293 169.513 243.173 169.833 242.934 170.067C242.701 170.3 242.4 170.417 242.033 170.417C241.66 170.417 241.355 170.3 241.115 170.067C240.882 169.833 240.765 169.513 240.765 169.107ZM242.025 168.381C241.674 168.381 241.499 168.623 241.499 169.107C241.499 169.591 241.674 169.833 242.025 169.833C242.375 169.833 242.55 169.591 242.55 169.107C242.55 168.623 242.375 168.381 242.025 168.381Z" fill="#32B153"/>
<path d="M77.0195 278.516L263.111 278.516" stroke="#404F54" stroke-opacity="0.16" stroke-width="0.674245" stroke-dasharray="2.02 2.02"/>
<path d="M77.0195 256.527L263.111 256.527" stroke="#404F54" stroke-opacity="0.16" stroke-width="0.674245" stroke-dasharray="2.02 2.02"/>
<path d="M77.0195 234.535L263.111 234.535" stroke="#404F54" stroke-opacity="0.16" stroke-width="0.674245" stroke-dasharray="2.02 2.02"/>
<path d="M77.0195 212.543L263.111 212.543" stroke="#404F54" stroke-opacity="0.16" stroke-width="0.674245" stroke-dasharray="2.02 2.02"/>
<path d="M77.0195 190.551L263.111 190.551" stroke="#404F54" stroke-opacity="0.16" stroke-width="0.674245" stroke-dasharray="2.02 2.02"/>
<path d="M179.109 239.114L179.109 204.293" stroke="white" stroke-width="0.674245" stroke-dasharray="2.02 2.02"/>
<g clip-path="url(#clip0_1183_23031)">
<path d="M71.6522 241.201L67.0412 266.728C65.8456 273.346 70.9317 279.433 77.6573 279.433H262.758C269.39 279.433 274.451 273.505 273.413 266.955L269.615 243.013C268.643 236.885 260.205 235.957 257.925 241.728C255.721 247.305 247.634 246.683 246.309 240.834L244.896 234.594C243.215 227.173 233.14 225.987 229.78 232.814L229.019 234.361C226.122 240.25 217.699 240.171 214.911 234.23C212.255 228.569 204.361 228.155 201.127 233.506L198.364 238.077C196.205 241.65 191.204 242.112 188.427 238.995C185.4 235.598 179.867 236.509 178.089 240.697L175.291 247.289C171.897 255.283 160.91 256.15 156.304 248.788L155.649 247.74C152.411 242.564 145.528 241.104 140.468 244.519L138.359 245.943C132.432 249.943 124.323 247.174 122.08 240.384L119.077 231.294C116.03 222.067 102.989 222.038 99.8994 231.25L97.5498 238.257C95.5879 244.108 87.5568 244.723 84.7266 239.24C81.6682 233.314 72.8376 234.639 71.6522 241.201Z" fill="url(#paint0_linear_1183_23031)"/>
<path d="M73.1445 239.378C76.7301 230.77 82.2234 235.792 84.5218 239.378V239.378C87.2968 245.117 95.6406 244.583 97.6605 238.536L99.8859 231.875C102.925 222.778 115.803 222.807 118.801 231.918L121.965 241.531C124.204 248.335 132.332 251.107 138.262 247.09L140.369 245.663C145.435 242.231 152.338 243.695 155.574 248.888L156.231 249.941C160.838 257.333 171.862 256.464 175.255 248.442L178.062 241.806C179.838 237.607 185.386 236.695 188.413 240.105V240.105C191.191 243.234 196.206 242.771 198.364 239.187L201.132 234.591C204.366 229.22 212.286 229.635 214.941 235.315V235.315C217.728 241.276 226.177 241.354 229.073 235.445L229.595 234.382C233.032 227.371 243.375 228.586 245.094 236.203L246.003 240.23C247.489 246.816 256.336 247.724 258.695 241.398V241.398C260.283 237.137 266.61 234.607 268.158 238.882C268.219 239.052 268.262 239.218 268.282 239.378" stroke="url(#paint1_linear_1183_23031)" stroke-width="1.34849"/>
<circle cx="179.576" cy="238.771" r="4.4072" fill="#6438D6" stroke="white" stroke-width="2.02274"/>
</g>
<path d="M84.4841 290.912V295.598H83.7155V292.388L82.2861 295.598H81.7534L80.3173 292.388V295.598H79.5487V290.912H80.378L82.0231 294.586L83.6615 290.912H84.4841ZM86.7687 295.658C86.4181 295.658 86.1012 295.58 85.818 295.422C85.5348 295.261 85.3123 295.036 85.1505 294.748C84.9887 294.456 84.9078 294.119 84.9078 293.737C84.9078 293.359 84.991 293.024 85.1573 292.732C85.3236 292.44 85.5506 292.215 85.8383 292.058C86.1259 291.901 86.4473 291.822 86.8024 291.822C87.1575 291.822 87.4789 291.901 87.7666 292.058C88.0543 292.215 88.2813 292.44 88.4476 292.732C88.6139 293.024 88.6971 293.359 88.6971 293.737C88.6971 294.114 88.6116 294.449 88.4408 294.741C88.27 295.034 88.0363 295.261 87.7396 295.422C87.4475 295.58 87.1238 295.658 86.7687 295.658ZM86.7687 294.991C86.9665 294.991 87.1508 294.944 87.3216 294.849C87.4969 294.755 87.6385 294.613 87.7464 294.424C87.8542 294.236 87.9082 294.006 87.9082 293.737C87.9082 293.467 87.8565 293.24 87.7531 293.056C87.6497 292.867 87.5126 292.725 87.3418 292.631C87.171 292.537 86.9867 292.489 86.7889 292.489C86.5912 292.489 86.4069 292.537 86.2361 292.631C86.0697 292.725 85.9371 292.867 85.8383 293.056C85.7394 293.24 85.6899 293.467 85.6899 293.737C85.6899 294.137 85.7911 294.447 85.9933 294.667C86.2001 294.883 86.4586 294.991 86.7687 294.991ZM90.9942 291.822C91.2863 291.822 91.5471 291.883 91.7763 292.004C92.01 292.125 92.1921 292.305 92.3224 292.543C92.4528 292.782 92.518 293.069 92.518 293.406V295.598H91.7561V293.521C91.7561 293.188 91.6729 292.934 91.5066 292.759C91.3403 292.579 91.1133 292.489 90.8256 292.489C90.5379 292.489 90.3087 292.579 90.1379 292.759C89.9716 292.934 89.8884 293.188 89.8884 293.521V295.598H89.1198V291.883H89.8884V292.307C90.0143 292.155 90.1738 292.035 90.3671 291.95C90.5649 291.865 90.7739 291.822 90.9942 291.822Z" fill="#0D091F" fill-opacity="0.3"/>
<path d="M126.404 290.912V291.539H125.157V295.598H124.388V291.539H123.134V290.912H126.404ZM130.21 291.883V295.598H129.441V295.159C129.32 295.312 129.16 295.434 128.963 295.523C128.769 295.609 128.563 295.652 128.342 295.652C128.05 295.652 127.787 295.591 127.553 295.47C127.324 295.348 127.142 295.168 127.007 294.93C126.877 294.692 126.812 294.404 126.812 294.067V291.883H127.574V293.952C127.574 294.285 127.657 294.541 127.823 294.721C127.989 294.896 128.216 294.984 128.504 294.984C128.792 294.984 129.019 294.896 129.185 294.721C129.356 294.541 129.441 294.285 129.441 293.952V291.883H130.21ZM134.292 293.649C134.292 293.788 134.283 293.914 134.265 294.027H131.426C131.449 294.323 131.559 294.562 131.757 294.741C131.955 294.921 132.197 295.011 132.485 295.011C132.898 295.011 133.191 294.838 133.361 294.492H134.191C134.078 294.834 133.874 295.114 133.577 295.335C133.285 295.55 132.921 295.658 132.485 295.658C132.13 295.658 131.811 295.58 131.528 295.422C131.249 295.261 131.029 295.036 130.867 294.748C130.709 294.456 130.631 294.119 130.631 293.737C130.631 293.355 130.707 293.02 130.86 292.732C131.017 292.44 131.235 292.215 131.514 292.058C131.797 291.901 132.121 291.822 132.485 291.822C132.836 291.822 133.148 291.898 133.422 292.051C133.696 292.204 133.91 292.42 134.063 292.698C134.215 292.973 134.292 293.289 134.292 293.649ZM133.49 293.406C133.485 293.123 133.384 292.896 133.186 292.725C132.988 292.555 132.743 292.469 132.451 292.469C132.186 292.469 131.959 292.555 131.77 292.725C131.581 292.892 131.469 293.119 131.433 293.406H133.49Z" fill="#0D091F" fill-opacity="0.3"/>
<path d="M169.932 290.912L168.543 295.598H167.673L166.689 292.051L165.644 295.598L164.781 295.604L163.452 290.912H164.268L165.239 294.728L166.291 290.912H167.154L168.132 294.708L169.109 290.912H169.932ZM173.634 293.649C173.634 293.788 173.625 293.914 173.607 294.027H170.768C170.791 294.323 170.901 294.562 171.098 294.741C171.296 294.921 171.539 295.011 171.827 295.011C172.24 295.011 172.532 294.838 172.703 294.492H173.532C173.42 294.834 173.216 295.114 172.919 295.335C172.627 295.55 172.263 295.658 171.827 295.658C171.472 295.658 171.152 295.58 170.869 295.422C170.59 295.261 170.37 295.036 170.208 294.748C170.051 294.456 169.972 294.119 169.972 293.737C169.972 293.355 170.049 293.02 170.202 292.732C170.359 292.44 170.577 292.215 170.856 292.058C171.139 291.901 171.463 291.822 171.827 291.822C172.177 291.822 172.49 291.898 172.764 292.051C173.038 292.204 173.252 292.42 173.404 292.698C173.557 292.973 173.634 293.289 173.634 293.649ZM172.831 293.406C172.827 293.123 172.726 292.896 172.528 292.725C172.33 292.555 172.085 292.469 171.793 292.469C171.528 292.469 171.301 292.555 171.112 292.725C170.923 292.892 170.811 293.119 170.775 293.406H172.831ZM173.797 293.723C173.797 293.35 173.873 293.02 174.026 292.732C174.183 292.444 174.394 292.222 174.66 292.065C174.929 291.903 175.228 291.822 175.556 291.822C175.799 291.822 176.037 291.876 176.271 291.984C176.509 292.087 176.698 292.226 176.838 292.402V290.608H177.613V295.598H176.838V295.038C176.712 295.218 176.536 295.366 176.312 295.483C176.091 295.6 175.837 295.658 175.55 295.658C175.226 295.658 174.929 295.577 174.66 295.416C174.394 295.249 174.183 295.02 174.026 294.728C173.873 294.431 173.797 294.096 173.797 293.723ZM176.838 293.737C176.838 293.481 176.784 293.258 176.676 293.069C176.572 292.88 176.435 292.737 176.264 292.638C176.094 292.539 175.909 292.489 175.712 292.489C175.514 292.489 175.329 292.539 175.159 292.638C174.988 292.732 174.848 292.874 174.741 293.062C174.637 293.247 174.586 293.467 174.586 293.723C174.586 293.979 174.637 294.204 174.741 294.397C174.848 294.591 174.988 294.739 175.159 294.843C175.334 294.941 175.518 294.991 175.712 294.991C175.909 294.991 176.094 294.941 176.264 294.843C176.435 294.744 176.572 294.6 176.676 294.411C176.784 294.218 176.838 293.993 176.838 293.737Z" fill="#0D091F" fill-opacity="0.3"/>
<path d="M207.31 290.912V291.539H206.063V295.598H205.294V291.539H204.04V290.912H207.31ZM209.673 291.822C209.956 291.822 210.208 291.883 210.428 292.004C210.653 292.125 210.829 292.305 210.954 292.543C211.085 292.782 211.15 293.069 211.15 293.406V295.598H210.388V293.521C210.388 293.188 210.305 292.934 210.139 292.759C209.972 292.579 209.745 292.489 209.458 292.489C209.17 292.489 208.941 292.579 208.77 292.759C208.603 292.934 208.52 293.188 208.52 293.521V295.598H207.752V290.608H208.52V292.314C208.651 292.157 208.815 292.035 209.013 291.95C209.215 291.865 209.435 291.822 209.673 291.822ZM215.158 291.883V295.598H214.389V295.159C214.268 295.312 214.108 295.434 213.91 295.523C213.717 295.609 213.51 295.652 213.29 295.652C212.998 295.652 212.735 295.591 212.501 295.47C212.272 295.348 212.09 295.168 211.955 294.93C211.825 294.692 211.76 294.404 211.76 294.067V291.883H212.521V293.952C212.521 294.285 212.605 294.541 212.771 294.721C212.937 294.896 213.164 294.984 213.452 294.984C213.74 294.984 213.967 294.896 214.133 294.721C214.304 294.541 214.389 294.285 214.389 293.952V291.883H215.158Z" fill="#0D091F" fill-opacity="0.3"/>
<path d="M247.498 290.912V291.539H245.509V292.921H247.059V293.548H245.509V295.598H244.74V290.912H247.498ZM248.642 292.422C248.754 292.233 248.902 292.087 249.087 291.984C249.275 291.876 249.498 291.822 249.754 291.822V292.617H249.559C249.257 292.617 249.028 292.694 248.871 292.847C248.718 293 248.642 293.265 248.642 293.642V295.598H247.873V291.883H248.642V292.422ZM250.515 291.39C250.375 291.39 250.258 291.343 250.164 291.249C250.07 291.154 250.022 291.038 250.022 290.898C250.022 290.759 250.07 290.642 250.164 290.548C250.258 290.453 250.375 290.406 250.515 290.406C250.649 290.406 250.764 290.453 250.858 290.548C250.953 290.642 251 290.759 251 290.898C251 291.038 250.953 291.154 250.858 291.249C250.764 291.343 250.649 291.39 250.515 291.39ZM250.892 291.883V295.598H250.123V291.883H250.892Z" fill="#0D091F" fill-opacity="0.3"/>
</g>
<defs>
<filter id="filter0_d_1183_23031" x="0.599998" y="0.0333319" width="338.925" height="379.675" filterUnits="userSpaceOnUse" color-interpolation-filters="sRGB">
<feFlood flood-opacity="0" result="BackgroundImageFix"/>
<feColorMatrix in="SourceAlpha" type="matrix" values="0 0 0 0 0 0 0 0 0 0 0 0 0 0 0 0 0 0 127 0" result="hardAlpha"/>
<feOffset dy="5.43333"/>
<feGaussianBlur stdDeviation="28.7"/>
<feComposite in2="hardAlpha" operator="out"/>
<feColorMatrix type="matrix" values="0 0 0 0 0.432796 0 0 0 0 0.432796 0 0 0 0 0.432796 0 0 0 0.1 0"/>
<feBlend mode="normal" in2="BackgroundImageFix" result="effect1_dropShadow_1183_23031"/>
<feBlend mode="normal" in="SourceGraphic" in2="effect1_dropShadow_1183_23031" result="shape"/>
</filter>
<linearGradient id="paint0_linear_1183_23031" x1="170.069" y1="202.461" x2="170.069" y2="279.433" gradientUnits="userSpaceOnUse">
<stop stop-color="#AB8EFF" stop-opacity="0.88"/>
<stop offset="1" stop-color="#AB8EFF" stop-opacity="0"/>
</linearGradient>
<linearGradient id="paint1_linear_1183_23031" x1="73.1445" y1="235.447" x2="268.282" y2="235.447" gradientUnits="userSpaceOnUse">
<stop stop-color="#CAC8ED" stop-opacity="0"/>
<stop offset="0.175" stop-color="#AB8EFF" stop-opacity="0.88"/>
<stop offset="0.86" stop-color="#6438D6"/>
<stop offset="1" stop-color="#6438D6"/>
</linearGradient>
<clipPath id="clip0_1183_23031">
<rect width="186.092" height="76.9722" fill="white" transform="translate(77.0195 202.461)"/>
</clipPath>
</defs>
</svg>
