<svg width="358" height="323" viewBox="0 0 358 323" fill="none" xmlns="http://www.w3.org/2000/svg">
<g filter="url(#filter0_f_26_37)">
<ellipse cx="112.001" cy="96.5" rx="91" ry="56.5" fill="#DDD5FF"/>
</g>
<g filter="url(#filter1_d_26_37)">
<g clip-path="url(#clip0_26_37)">
<g filter="url(#filter2_d_26_37)">
<rect x="88.001" y="33" width="304" height="186" rx="14.4039" fill="white"/>
</g>
<path d="M114.085 56.9748C114.085 57.4837 113.965 57.9639 113.725 58.4152C113.485 58.8665 113.101 59.2362 112.573 59.5243C112.045 59.8028 111.368 59.942 110.542 59.942H108.727V64.0039H107.085V53.9932H110.542C111.31 53.9932 111.959 54.1276 112.487 54.3965C113.024 54.6557 113.423 55.011 113.682 55.4624C113.951 55.9137 114.085 56.4178 114.085 56.9748ZM110.542 58.6024C111.166 58.6024 111.632 58.4632 111.939 58.1847C112.247 57.8966 112.4 57.4933 112.4 56.9748C112.4 55.8801 111.781 55.3327 110.542 55.3327H108.727V58.6024H110.542ZM118.374 64.1335C117.625 64.1335 116.948 63.9655 116.343 63.6294C115.738 63.2837 115.263 62.8036 114.917 62.189C114.571 61.5648 114.398 60.8446 114.398 60.0284C114.398 59.2218 114.576 58.5064 114.931 57.8822C115.287 57.2581 115.772 56.7779 116.386 56.4418C117.001 56.1057 117.687 55.9377 118.446 55.9377C119.205 55.9377 119.891 56.1057 120.506 56.4418C121.12 56.7779 121.605 57.2581 121.961 57.8822C122.316 58.5064 122.493 59.2218 122.493 60.0284C122.493 60.835 122.311 61.5504 121.946 62.1746C121.581 62.7988 121.082 63.2837 120.448 63.6294C119.824 63.9655 119.133 64.1335 118.374 64.1335ZM118.374 62.7076C118.796 62.7076 119.19 62.6067 119.555 62.4051C119.93 62.2034 120.232 61.9009 120.463 61.4976C120.693 61.0943 120.808 60.6046 120.808 60.0284C120.808 59.4523 120.698 58.9673 120.477 58.5736C120.256 58.1703 119.963 57.8678 119.598 57.6662C119.233 57.4645 118.84 57.3637 118.417 57.3637C117.995 57.3637 117.601 57.4645 117.236 57.6662C116.881 57.8678 116.597 58.1703 116.386 58.5736C116.175 58.9673 116.069 59.4523 116.069 60.0284C116.069 60.8831 116.285 61.5456 116.717 62.0162C117.159 62.4771 117.711 62.7076 118.374 62.7076ZM125.039 57.2196C125.279 56.8163 125.596 56.5043 125.989 56.2834C126.393 56.0529 126.868 55.9377 127.415 55.9377V57.6374H126.998C126.354 57.6374 125.864 57.8006 125.528 58.1271C125.202 58.4536 125.039 59.0201 125.039 59.8268V64.0039H123.397V56.0673H125.039V57.2196ZM130.12 57.4069V61.8001C130.12 62.0978 130.187 62.3138 130.322 62.4483C130.466 62.5731 130.706 62.6355 131.042 62.6355H132.05V64.0039H130.754C130.015 64.0039 129.448 63.8311 129.054 63.4854C128.661 63.1397 128.464 62.5779 128.464 61.8001V57.4069H127.527V56.0673H128.464V54.094H130.12V56.0673H132.05V57.4069H130.12ZM136.171 57.4069H134.702V64.0039H133.045V57.4069H132.109V56.0673H133.045V55.5056C133.045 54.5933 133.285 53.9307 133.765 53.5178C134.255 53.0953 135.018 52.8841 136.056 52.8841V54.2524C135.556 54.2524 135.206 54.3485 135.004 54.5405C134.802 54.723 134.702 55.0447 134.702 55.5056V56.0673H136.171V57.4069ZM140.348 64.1335C139.599 64.1335 138.922 63.9655 138.317 63.6294C137.712 63.2837 137.237 62.8036 136.891 62.189C136.546 61.5648 136.373 60.8446 136.373 60.0284C136.373 59.2218 136.551 58.5064 136.906 57.8822C137.261 57.2581 137.746 56.7779 138.361 56.4418C138.975 56.1057 139.662 55.9377 140.42 55.9377C141.179 55.9377 141.866 56.1057 142.48 56.4418C143.095 56.7779 143.58 57.2581 143.935 57.8822C144.29 58.5064 144.468 59.2218 144.468 60.0284C144.468 60.835 144.285 61.5504 143.921 62.1746C143.556 62.7988 143.056 63.2837 142.423 63.6294C141.798 63.9655 141.107 64.1335 140.348 64.1335ZM140.348 62.7076C140.771 62.7076 141.165 62.6067 141.53 62.4051C141.904 62.2034 142.207 61.9009 142.437 61.4976C142.667 61.0943 142.783 60.6046 142.783 60.0284C142.783 59.4523 142.672 58.9673 142.451 58.5736C142.231 58.1703 141.938 57.8678 141.573 57.6662C141.208 57.4645 140.814 57.3637 140.392 57.3637C139.969 57.3637 139.575 57.4645 139.21 57.6662C138.855 57.8678 138.572 58.1703 138.361 58.5736C138.149 58.9673 138.044 59.4523 138.044 60.0284C138.044 60.8831 138.26 61.5456 138.692 62.0162C139.134 62.4771 139.686 62.7076 140.348 62.7076ZM147.013 53.345V64.0039H145.371V53.345H147.013ZM149.284 55.0158C148.986 55.0158 148.737 54.915 148.535 54.7134C148.333 54.5117 148.233 54.262 148.233 53.9644C148.233 53.6667 148.333 53.417 148.535 53.2153C148.737 53.0137 148.986 52.9129 149.284 52.9129C149.572 52.9129 149.817 53.0137 150.019 53.2153C150.22 53.417 150.321 53.6667 150.321 53.9644C150.321 54.262 150.22 54.5117 150.019 54.7134C149.817 54.915 149.572 55.0158 149.284 55.0158ZM150.091 56.0673V64.0039H148.449V56.0673H150.091ZM154.969 64.1335C154.22 64.1335 153.543 63.9655 152.938 63.6294C152.333 63.2837 151.858 62.8036 151.512 62.189C151.166 61.5648 150.993 60.8446 150.993 60.0284C150.993 59.2218 151.171 58.5064 151.526 57.8822C151.882 57.2581 152.367 56.7779 152.981 56.4418C153.596 56.1057 154.282 55.9377 155.041 55.9377C155.8 55.9377 156.486 56.1057 157.101 56.4418C157.715 56.7779 158.2 57.2581 158.556 57.8822C158.911 58.5064 159.088 59.2218 159.088 60.0284C159.088 60.835 158.906 61.5504 158.541 62.1746C158.176 62.7988 157.677 63.2837 157.043 63.6294C156.419 63.9655 155.728 64.1335 154.969 64.1335ZM154.969 62.7076C155.391 62.7076 155.785 62.6067 156.15 62.4051C156.525 62.2034 156.827 61.9009 157.058 61.4976C157.288 61.0943 157.403 60.6046 157.403 60.0284C157.403 59.4523 157.293 58.9673 157.072 58.5736C156.851 58.1703 156.558 57.8678 156.193 57.6662C155.828 57.4645 155.435 57.3637 155.012 57.3637C154.59 57.3637 154.196 57.4645 153.831 57.6662C153.476 57.8678 153.192 58.1703 152.981 58.5736C152.77 58.9673 152.664 59.4523 152.664 60.0284C152.664 60.8831 152.88 61.5456 153.313 62.0162C153.754 62.4771 154.306 62.7076 154.969 62.7076Z" fill="#6438D6"/>
<path d="M117.759 92.7337C117.759 93.4539 117.578 94.1309 117.218 94.7647C116.873 95.3985 116.354 95.9314 115.663 96.3635C114.986 96.7957 114.179 97.0549 113.243 97.1414V98.8914H111.838V97.1414C110.485 97.0117 109.39 96.5868 108.554 95.8666C107.719 95.1464 107.301 94.1957 107.301 93.0146H109.937C109.98 93.5764 110.16 94.0445 110.477 94.419C110.794 94.7791 111.248 95.0096 111.838 95.1104V90.3571C110.873 90.1122 110.088 89.8674 109.483 89.6225C108.878 89.3632 108.36 88.9599 107.928 88.4126C107.51 87.8652 107.301 87.1162 107.301 86.1655C107.301 84.97 107.719 83.9833 108.554 83.2055C109.39 82.4133 110.485 81.9524 111.838 81.8228V80.0727H113.243V81.8228C114.51 81.938 115.526 82.3413 116.289 83.0327C117.067 83.7097 117.506 84.6459 117.607 85.8415H114.971C114.928 85.3949 114.755 84.9988 114.453 84.6531C114.15 84.293 113.747 84.0482 113.243 83.9185V88.5854C114.208 88.8159 114.993 89.0607 115.598 89.32C116.203 89.5649 116.714 89.961 117.132 90.5083C117.55 91.0413 117.759 91.7831 117.759 92.7337ZM109.808 86.0359C109.808 86.6265 109.98 87.0874 110.326 87.4187C110.686 87.75 111.19 88.0165 111.838 88.2181V83.8537C111.219 83.9257 110.722 84.149 110.348 84.5235C109.988 84.898 109.808 85.4021 109.808 86.0359ZM113.243 95.1104C113.877 95.0096 114.374 94.7575 114.734 94.3542C115.094 93.9365 115.274 93.4395 115.274 92.8634C115.274 92.2872 115.094 91.8407 114.734 91.5238C114.388 91.1925 113.891 90.9261 113.243 90.7244V95.1104ZM130.428 83.3784H123.19V87.678C123.493 87.2746 123.939 86.9362 124.53 86.6625C125.135 86.3888 125.776 86.252 126.453 86.252C127.662 86.252 128.642 86.5112 129.391 87.0298C130.154 87.5483 130.694 88.2037 131.011 88.9959C131.343 89.7881 131.508 90.6236 131.508 91.5022C131.508 92.5681 131.299 93.5188 130.882 94.3542C130.478 95.1752 129.866 95.8234 129.045 96.2987C128.239 96.7741 127.245 97.0117 126.064 97.0117C124.494 97.0117 123.233 96.6228 122.283 95.845C121.332 95.0672 120.763 94.0373 120.576 92.7554H122.974C123.132 93.4323 123.485 93.9725 124.033 94.3758C124.58 94.7647 125.264 94.9592 126.085 94.9592C127.108 94.9592 127.871 94.6495 128.375 94.0301C128.894 93.4107 129.153 92.5897 129.153 91.567C129.153 90.5299 128.894 89.7377 128.375 89.1904C127.857 88.6286 127.094 88.3477 126.085 88.3477C125.379 88.3477 124.782 88.5278 124.292 88.8879C123.817 89.2336 123.471 89.7089 123.255 90.3139H120.921V81.2178H130.428V83.3784ZM132.69 93.7276V91.8695L139.949 81.4555H142.931V91.5886H144.94V93.7276H142.931V97.0117H140.511V93.7276H132.69ZM140.619 83.9617L135.52 91.5886H140.619V83.9617ZM148.926 94.0517L146.311 100.015H144.712L146.246 94.0517H148.926ZM152.331 88.7799C150.833 88.0309 150.084 86.8497 150.084 85.2365C150.084 84.4587 150.278 83.7457 150.667 83.0975C151.056 82.4493 151.639 81.938 152.417 81.5635C153.195 81.1746 154.146 80.9801 155.269 80.9801C156.378 80.9801 157.322 81.1746 158.1 81.5635C158.892 81.938 159.482 82.4493 159.871 83.0975C160.26 83.7457 160.455 84.4587 160.455 85.2365C160.455 86.0431 160.246 86.7561 159.828 87.3755C159.425 87.9804 158.885 88.4486 158.208 88.7799C159.029 89.0823 159.677 89.5793 160.152 90.2707C160.628 90.9477 160.865 91.7471 160.865 92.6689C160.865 93.6052 160.628 94.4334 160.152 95.1536C159.677 95.8738 159.014 96.4284 158.164 96.8173C157.315 97.2062 156.35 97.4006 155.269 97.4006C154.189 97.4006 153.224 97.2062 152.374 96.8173C151.539 96.4284 150.883 95.8738 150.408 95.1536C149.933 94.4334 149.695 93.6052 149.695 92.6689C149.695 91.7327 149.933 90.9261 150.408 90.2491C150.883 89.5721 151.524 89.0823 152.331 88.7799ZM158.1 85.539C158.1 84.7324 157.848 84.113 157.343 83.6809C156.839 83.2487 156.148 83.0327 155.269 83.0327C154.405 83.0327 153.721 83.2487 153.217 83.6809C152.713 84.113 152.46 84.7396 152.46 85.5606C152.46 86.2808 152.72 86.8713 153.238 87.3323C153.771 87.7788 154.448 88.002 155.269 88.002C156.09 88.002 156.767 87.7716 157.3 87.3107C157.833 86.8497 158.1 86.2592 158.1 85.539ZM155.269 89.8602C154.319 89.8602 153.541 90.0978 152.936 90.5732C152.345 91.0341 152.05 91.7039 152.05 92.5825C152.05 93.4035 152.338 94.0733 152.914 94.5919C153.49 95.096 154.275 95.3481 155.269 95.3481C156.249 95.3481 157.019 95.0888 157.581 94.5702C158.157 94.0517 158.445 93.3891 158.445 92.5825C158.445 91.7183 158.15 91.0485 157.559 90.5732C156.983 90.0978 156.22 89.8602 155.269 89.8602ZM162.371 88.9311C162.371 86.4392 162.789 84.4947 163.624 83.0975C164.474 81.6859 165.929 80.9801 167.989 80.9801C170.048 80.9801 171.496 81.6859 172.331 83.0975C173.181 84.4947 173.606 86.4392 173.606 88.9311C173.606 91.4518 173.181 93.4251 172.331 94.8511C171.496 96.2627 170.048 96.9685 167.989 96.9685C165.929 96.9685 164.474 96.2627 163.624 94.8511C162.789 93.4251 162.371 91.4518 162.371 88.9311ZM171.186 88.9311C171.186 87.7644 171.107 86.7777 170.949 85.9711C170.805 85.1645 170.502 84.5091 170.041 84.005C169.58 83.4864 168.896 83.2271 167.989 83.2271C167.081 83.2271 166.397 83.4864 165.936 84.005C165.475 84.5091 165.165 85.1645 165.007 85.9711C164.863 86.7777 164.791 87.7644 164.791 88.9311C164.791 90.141 164.863 91.1565 165.007 91.9775C165.151 92.7986 165.453 93.4611 165.914 93.9653C166.39 94.4694 167.081 94.7215 167.989 94.7215C168.896 94.7215 169.58 94.4694 170.041 93.9653C170.516 93.4611 170.826 92.7986 170.97 91.9775C171.114 91.1565 171.186 90.141 171.186 88.9311ZM175.089 85.1501C175.175 83.8105 175.687 82.7662 176.623 82.0172C177.573 81.2682 178.783 80.8937 180.253 80.8937C181.261 80.8937 182.132 81.0737 182.867 81.4338C183.602 81.7939 184.156 82.2837 184.531 82.9031C184.905 83.5224 185.092 84.221 185.092 84.9988C185.092 85.8919 184.855 86.6553 184.379 87.2891C183.904 87.9228 183.335 88.3477 182.672 88.5638V88.6502C183.522 88.9095 184.185 89.3848 184.66 90.0762C185.136 90.7532 185.373 91.6246 185.373 92.6905C185.373 93.5404 185.179 94.2966 184.79 94.9592C184.401 95.6217 183.825 96.1475 183.061 96.5364C182.298 96.9109 181.383 97.0981 180.317 97.0981C178.762 97.0981 177.48 96.702 176.472 95.9098C175.478 95.1032 174.945 93.9509 174.873 92.4529H177.249C177.307 93.2163 177.602 93.8428 178.135 94.3326C178.668 94.8079 179.388 95.0456 180.296 95.0456C181.174 95.0456 181.851 94.8079 182.327 94.3326C182.802 93.8428 183.04 93.2163 183.04 92.4529C183.04 91.4446 182.716 90.7316 182.068 90.3139C181.434 89.8818 180.454 89.6657 179.129 89.6657H178.567V87.6347H179.151C180.317 87.6203 181.203 87.4259 181.808 87.0514C182.428 86.6769 182.737 86.0863 182.737 85.2797C182.737 84.5883 182.514 84.041 182.068 83.6377C181.621 83.2199 180.987 83.0111 180.166 83.0111C179.36 83.0111 178.733 83.2199 178.286 83.6377C177.84 84.041 177.573 84.5451 177.487 85.1501H175.089Z" fill="black"/>
<rect x="106.451" y="117.45" width="269.1" height="27.9076" rx="13.9538" stroke="black" stroke-opacity="0.05" stroke-width="0.900247"/>
<circle cx="119.955" cy="131.401" r="3.15086" fill="#A887FF"/>
<path d="M132.947 133.902H129.295V126.34H132.882C134.254 126.34 135.215 127.118 135.215 128.252C135.215 129.117 134.589 129.786 133.66 130.013C134.708 130.175 135.378 130.888 135.378 131.85C135.378 133.06 134.384 133.902 132.947 133.902ZM130.581 127.496V129.495H132.839C133.487 129.495 133.93 129.063 133.93 128.458C133.93 127.896 133.519 127.496 132.936 127.496H130.581ZM130.581 130.618V132.736H133.012C133.66 132.736 134.06 132.271 134.06 131.666C134.06 131.05 133.584 130.618 132.893 130.618H130.581ZM136.553 127.41C136.088 127.41 135.732 127.042 135.732 126.578C135.732 126.113 136.088 125.757 136.553 125.757C137.028 125.757 137.374 126.113 137.374 126.578C137.374 127.042 137.028 127.41 136.553 127.41ZM137.19 133.902H135.915V128.177H137.19V133.902ZM141.233 133.902H140.499C139.256 133.902 138.587 133.287 138.587 132.152V129.257H137.582V128.177H138.587V126.221H139.861V128.177H141.341V129.257H139.861V132.066C139.861 132.552 140.11 132.822 140.585 132.822H141.233V133.902ZM144.276 134.064C142.407 134.064 141.316 132.725 141.316 130.996C141.316 129.117 142.58 128.004 144.244 128.004C145.81 128.004 146.869 128.965 146.977 130.391H145.724C145.605 129.603 145.043 129.095 144.233 129.095C143.261 129.095 142.612 129.83 142.612 130.996C142.612 132.249 143.325 132.973 144.276 132.973C145.054 132.973 145.594 132.476 145.724 131.655H146.977C146.826 133.135 145.799 134.064 144.276 134.064ZM150.065 134.064C148.207 134.064 147.127 132.757 147.127 130.986C147.127 129.117 148.391 128.004 150.065 128.004C151.913 128.004 152.993 129.3 152.993 130.986C152.993 132.919 151.772 134.064 150.065 134.064ZM150.065 132.973C151.092 132.973 151.696 132.131 151.696 130.986C151.696 129.851 151.059 129.095 150.065 129.095C149.071 129.095 148.423 129.851 148.423 130.986C148.423 132.239 149.125 132.973 150.065 132.973ZM154.089 127.41C153.624 127.41 153.267 127.042 153.267 126.578C153.267 126.113 153.624 125.757 154.089 125.757C154.564 125.757 154.91 126.113 154.91 126.578C154.91 127.042 154.564 127.41 154.089 127.41ZM154.726 133.902H153.451V128.177H154.726V133.902ZM156.76 133.902H155.485V128.177H156.511L156.619 129.019C156.976 128.425 157.7 128.004 158.553 128.004C159.774 128.004 160.573 128.825 160.573 130.111V133.902H159.299V130.175C159.299 129.538 158.877 129.117 158.164 129.117C157.332 129.117 156.771 129.689 156.76 130.435V133.902Z" fill="black"/>
<path d="M181.507 132.066H181.614C181.885 132.066 182.021 132.066 182.142 132.116C182.264 132.167 182.36 132.263 182.551 132.454L183.841 133.747C184.012 133.918 184.098 134.003 184.204 134.053C184.221 134.061 184.238 134.068 184.256 134.074C184.366 134.114 184.487 134.114 184.728 134.114V134.114C185.079 134.114 185.254 134.114 185.4 134.192C185.423 134.204 185.445 134.218 185.466 134.232C185.602 134.327 185.682 134.482 185.843 134.794L186.671 136.404C187.17 137.373 187.42 137.857 187.816 137.864C188.213 137.87 188.477 137.393 189.006 136.44L189.567 135.431C189.751 135.098 189.844 134.932 189.999 134.841C190.154 134.749 190.345 134.749 190.725 134.749H191.665C191.872 134.749 191.975 134.749 192.068 134.721C192.165 134.692 192.254 134.641 192.328 134.573C192.399 134.506 192.452 134.417 192.557 134.239L192.592 134.178C192.662 134.059 192.697 133.999 192.74 133.951C192.836 133.843 192.965 133.769 193.107 133.741C193.17 133.729 193.239 133.729 193.378 133.729V133.729C193.533 133.729 193.611 133.729 193.681 133.713C193.838 133.679 193.977 133.588 194.072 133.459C194.115 133.401 194.147 133.33 194.21 133.188L194.827 131.802C195.31 130.717 195.552 130.175 195.966 130.161C196.381 130.148 196.657 130.673 197.209 131.725L197.826 132.899C198.215 133.64 198.409 134.01 198.745 134.058C199.08 134.106 199.37 133.805 199.951 133.202L200.437 132.698C200.741 132.382 200.894 132.224 201.094 132.183C201.295 132.141 201.497 132.226 201.902 132.396L202.358 132.587C202.998 132.855 203.318 132.989 203.586 132.861C203.854 132.732 203.95 132.399 204.142 131.733L204.671 129.901C204.703 129.789 204.719 129.733 204.742 129.686C204.835 129.487 205.02 129.348 205.237 129.314C205.288 129.305 205.347 129.305 205.463 129.305V129.305C205.587 129.305 205.649 129.305 205.704 129.296C205.931 129.258 206.123 129.104 206.209 128.889C206.229 128.838 206.242 128.778 206.269 128.656L206.444 127.853C206.776 126.331 206.942 125.57 207.406 125.512C207.87 125.453 208.22 126.149 208.92 127.54L209.839 129.366C210.216 130.114 210.404 130.489 210.739 130.542C211.074 130.596 211.369 130.299 211.961 129.704L212.296 129.368C212.7 128.961 212.903 128.758 213.159 128.745C213.416 128.733 213.637 128.916 214.079 129.282L214.382 129.533C214.732 129.823 214.907 129.968 215.109 129.988C215.166 129.993 215.225 129.991 215.282 129.982C215.482 129.949 215.647 129.793 215.977 129.48V129.48C216.403 129.077 216.616 128.876 216.86 128.863C216.929 128.86 216.998 128.867 217.065 128.885C217.301 128.948 217.467 129.19 217.798 129.673L218.643 130.904C218.678 130.955 218.696 130.981 218.715 131.005C218.735 131.028 218.757 131.05 218.801 131.094L219.375 131.665C219.534 131.822 219.613 131.901 219.712 131.949C219.81 131.997 219.921 132.011 220.143 132.039L220.352 132.066H221.118" stroke="url(#paint0_linear_26_37)" stroke-width="0.514485"/>
<mask id="path-11-inside-1_26_37" fill="white">
<path d="M257.28 124.203H306.794V138.605H257.28V124.203Z"/>
</mask>
<path d="M305.894 124.203V138.605H307.694V124.203H305.894Z" fill="black" fill-opacity="0.08" mask="url(#path-11-inside-1_26_37)"/>
<rect x="257.28" y="124.203" width="35.1096" height="14.4015" rx="7.20074" fill="#00A903" fill-opacity="0.12"/>
<path d="M268.784 132.398H268.006V131.044H266.601V130.346H268.006V128.977H268.784V130.346H270.181V131.044H268.784V132.398ZM272.315 132.902H271.45V129.15C271.213 129.481 270.831 129.654 270.313 129.654H270.255V128.826H270.313C271.062 128.826 271.458 128.516 271.458 127.933V127.861H272.315V132.902ZM274.777 133.01C273.574 133.01 272.774 131.973 272.774 130.367C272.774 128.797 273.552 127.753 274.777 127.753C275.972 127.753 276.772 128.776 276.772 130.367C276.772 131.944 275.994 133.01 274.777 133.01ZM274.777 132.211C275.461 132.211 275.9 131.491 275.9 130.367C275.9 129.258 275.461 128.545 274.777 128.545C274.085 128.545 273.646 129.258 273.646 130.367C273.646 131.491 274.085 132.211 274.777 132.211ZM282.142 127.854L278.505 133.111L277.879 132.809L281.508 127.558L282.142 127.854ZM278.123 130.432C277.418 130.432 276.921 129.892 276.921 129.114C276.921 128.307 277.418 127.753 278.123 127.753C278.836 127.753 279.333 128.293 279.333 129.071C279.333 129.87 278.836 130.432 278.123 130.432ZM278.123 129.849C278.462 129.849 278.7 129.539 278.7 129.085C278.7 128.639 278.469 128.329 278.131 128.329C277.792 128.329 277.555 128.639 277.555 129.092C277.555 129.539 277.792 129.849 278.123 129.849ZM281.832 133.01C281.119 133.01 280.623 132.463 280.623 131.685C280.623 130.879 281.119 130.324 281.832 130.331C282.538 130.338 283.035 130.879 283.035 131.649C283.035 132.449 282.538 133.01 281.832 133.01ZM281.832 132.427C282.171 132.427 282.409 132.117 282.409 131.664C282.409 131.217 282.171 130.907 281.84 130.907C281.494 130.907 281.256 131.217 281.256 131.671C281.256 132.117 281.494 132.427 281.832 132.427Z" fill="#00A903"/>
<path d="M329.272 132.482C329.272 134.033 328.075 135.028 326.172 135.091V136.604H325.151V135.041C323.298 134.789 322.101 133.718 322 132.18H323.55C323.663 132.936 324.231 133.466 325.151 133.667V130.97L324.899 130.894C323.865 130.579 322.252 130.126 322.252 128.399C322.252 127.013 323.348 125.979 325.151 125.891V124.479H326.172V125.941C327.86 126.193 328.906 127.277 329.007 128.903H327.47C327.419 128.134 326.978 127.567 326.172 127.34V129.811L326.713 129.974C327.961 130.365 329.272 130.819 329.272 132.482ZM323.752 128.323C323.752 129.029 324.394 129.243 325.151 129.483V127.239C324.294 127.302 323.752 127.693 323.752 128.323ZM326.172 131.273V133.743C327.192 133.692 327.734 133.264 327.734 132.558C327.734 131.865 327.192 131.588 326.335 131.323L326.172 131.273ZM335.275 134.902H333.763V132.936H329.477V131.6L333.75 126.08H335.275V131.575H336.8V132.936H335.275V134.902ZM333.763 128.147L331.116 131.575H333.763V128.147ZM339.859 134.902H338.346V128.336C337.93 128.916 337.262 129.218 336.355 129.218H336.254V127.769H336.355C337.666 127.769 338.359 127.227 338.359 126.206V126.08H339.859V134.902ZM342.793 133.037L341.356 137.41L340.209 137.058L341.596 132.672L342.793 133.037ZM346.6 135.091C344.382 135.091 343.071 133.919 343.071 132.482C343.071 131.462 343.777 130.68 344.924 130.302C343.991 129.899 343.475 129.13 343.475 128.273C343.475 126.987 344.634 125.891 346.6 125.891C348.554 125.891 349.701 126.975 349.701 128.273C349.701 129.117 349.184 129.886 348.264 130.302C349.411 130.668 350.104 131.462 350.104 132.482C350.104 133.894 348.844 135.091 346.6 135.091ZM346.6 129.811C347.558 129.811 348.214 129.269 348.214 128.487C348.214 127.731 347.558 127.202 346.6 127.202C345.642 127.202 344.987 127.731 344.987 128.487C344.987 129.269 345.642 129.811 346.6 129.811ZM346.6 133.718C347.81 133.718 348.541 133.087 348.541 132.306C348.541 131.537 347.81 130.894 346.6 130.894C345.39 130.894 344.647 131.537 344.647 132.306C344.647 133.087 345.39 133.718 346.6 133.718ZM353.884 135.091C351.666 135.091 350.355 133.919 350.355 132.482C350.355 131.462 351.061 130.68 352.208 130.302C351.275 129.899 350.759 129.13 350.759 128.273C350.759 126.987 351.918 125.891 353.884 125.891C355.838 125.891 356.985 126.975 356.985 128.273C356.985 129.117 356.468 129.886 355.548 130.302C356.695 130.668 357.388 131.462 357.388 132.482C357.388 133.894 356.128 135.091 353.884 135.091ZM353.884 129.811C354.842 129.811 355.497 129.269 355.497 128.487C355.497 127.731 354.842 127.202 353.884 127.202C352.926 127.202 352.271 127.731 352.271 128.487C352.271 129.269 352.926 129.811 353.884 129.811ZM353.884 133.718C355.094 133.718 355.825 133.087 355.825 132.306C355.825 131.537 355.094 130.894 353.884 130.894C352.674 130.894 351.931 131.537 351.931 132.306C351.931 133.087 352.674 133.718 353.884 133.718ZM363.436 134.902H361.923V132.936H357.638V131.6L361.911 126.08H363.436V131.575H364.961V132.936H363.436V134.902ZM361.923 128.147L359.277 131.575H361.923V128.147Z" fill="black"/>
<rect x="106.455" y="145.079" width="267.643" height="27.9052" rx="13.9526" stroke="black" stroke-opacity="0.05" stroke-width="0.900247"/>
<circle cx="119.958" cy="159.03" r="3.15086" fill="#C958E2"/>
<path d="M134.69 161.531H129.299V153.969H134.593V155.136H130.585V157.08H134.215V158.215H130.585V160.365H134.69V161.531ZM138.507 161.531H137.772C136.53 161.531 135.86 160.915 135.86 159.781V156.886H134.856V155.806H135.86V153.85H137.135V155.806H138.615V156.886H137.135V159.695C137.135 160.181 137.384 160.451 137.859 160.451H138.507V161.531ZM140.305 161.531H139.03V153.429H140.305V156.421C140.693 155.946 141.352 155.633 142.098 155.633C143.319 155.633 144.118 156.454 144.118 157.739V161.531H142.843V157.804C142.843 157.167 142.422 156.746 141.741 156.746C140.877 156.746 140.315 157.318 140.305 158.063V161.531ZM147.445 161.693C145.695 161.693 144.495 160.44 144.495 158.69C144.495 156.8 145.738 155.633 147.337 155.633C148.957 155.633 150.037 156.767 150.07 158.625V158.928H145.77C145.857 159.932 146.483 160.613 147.455 160.613C148.114 160.613 148.611 160.289 148.806 159.716H150.048C149.756 160.948 148.795 161.693 147.445 161.693ZM145.824 158.031H148.752C148.59 157.21 148.082 156.713 147.337 156.713C146.58 156.713 146.019 157.21 145.824 158.031ZM151.799 161.531H150.524V155.806H151.551L151.702 156.929C152.069 156.151 152.739 155.741 153.69 155.741H153.906V156.983H153.69C152.501 156.983 151.799 157.621 151.799 158.701V161.531ZM156.693 161.693C154.942 161.693 153.743 160.44 153.743 158.69C153.743 156.8 154.986 155.633 156.585 155.633C158.205 155.633 159.285 156.767 159.318 158.625V158.928H155.018C155.105 159.932 155.731 160.613 156.703 160.613C157.362 160.613 157.859 160.289 158.054 159.716H159.296C159.004 160.948 158.043 161.693 156.693 161.693ZM155.072 158.031H158C157.838 157.21 157.33 156.713 156.585 156.713C155.828 156.713 155.267 157.21 155.072 158.031ZM161.825 161.693C160.464 161.693 159.675 160.84 159.675 159.598V155.806H160.95V159.544C160.95 160.192 161.403 160.57 162.084 160.57C162.959 160.57 163.478 159.997 163.488 159.263V155.806H164.763V161.531H163.737L163.64 160.699C163.305 161.315 162.624 161.693 161.825 161.693ZM166.794 161.531H165.52V155.806H166.546L166.643 156.605C167 156.043 167.702 155.633 168.555 155.633C169.376 155.633 170.003 156.043 170.305 156.702C170.63 156.097 171.364 155.633 172.272 155.633C173.471 155.633 174.238 156.486 174.238 157.718V161.531H172.952V157.783C172.952 157.145 172.563 156.735 171.948 156.735C171.072 156.735 170.522 157.307 170.511 158.063V161.531H169.236V157.783C169.236 157.145 168.847 156.735 168.231 156.735C167.356 156.735 166.805 157.307 166.794 158.063V161.531Z" fill="black"/>
<path d="M235.122 158.144V158.144C234.881 158.144 234.76 158.144 234.653 158.107C234.564 158.076 234.482 158.025 234.414 157.96C234.333 157.882 234.278 157.774 234.169 157.558L233.322 155.881L232.454 154.493C231.849 153.525 231.547 153.042 231.142 153.078C230.737 153.114 230.525 153.643 230.102 154.703L229.389 156.485C228.946 157.591 228.725 158.144 228.311 158.173C227.896 158.202 227.601 157.685 227.01 156.65L226.57 155.881L226.502 155.756C226.077 154.977 225.865 154.588 225.606 154.509C225.432 154.456 225.243 154.477 225.085 154.567C224.85 154.701 224.729 155.128 224.486 155.98L224.175 157.071C224.051 157.507 223.479 157.608 223.213 157.242V157.242C222.967 156.904 222.447 156.959 222.277 157.341L221.856 158.287C221.447 159.205 221.242 159.665 220.95 159.752C220.81 159.793 220.66 159.787 220.523 159.735C220.239 159.625 220.071 159.151 219.737 158.202L218.803 155.557C218.318 154.181 218.075 153.493 217.657 153.45C217.608 153.445 217.558 153.446 217.509 153.452C217.092 153.504 216.864 154.197 216.409 155.584L216.306 155.9C216.051 156.678 215.923 157.067 215.687 157.192C215.542 157.269 215.373 157.289 215.214 157.248C214.955 157.182 214.739 156.834 214.308 156.138V156.138C213.75 155.237 213.471 154.786 213.181 154.733C213.004 154.701 212.822 154.742 212.676 154.847C212.437 155.019 212.379 155.546 212.262 156.6L211.86 160.233C211.852 160.31 211.847 160.349 211.84 160.382C211.78 160.663 211.546 160.872 211.261 160.901C211.227 160.905 211.188 160.905 211.11 160.905V160.905C211.039 160.905 211.003 160.905 210.972 160.908C210.708 160.933 210.485 161.113 210.404 161.365C210.395 161.395 210.387 161.43 210.372 161.499L210.185 162.357C209.853 163.879 209.687 164.64 209.223 164.698C208.759 164.757 208.409 164.061 207.708 162.67L206.79 160.844C206.413 160.096 206.224 159.721 205.89 159.668C205.555 159.614 205.259 159.911 204.668 160.506L204.333 160.842C203.928 161.249 203.726 161.452 203.47 161.465C203.213 161.477 202.992 161.294 202.55 160.928L202.247 160.677C201.897 160.387 201.722 160.242 201.52 160.222C201.462 160.217 201.404 160.219 201.347 160.228C201.147 160.261 200.982 160.417 200.652 160.73V160.73C200.226 161.133 200.013 161.334 199.769 161.347C199.7 161.35 199.631 161.343 199.564 161.325C199.328 161.262 199.162 161.02 198.831 160.537L197.986 159.306C197.951 159.255 197.933 159.229 197.913 159.205C197.894 159.182 197.872 159.16 197.828 159.116L197.254 158.545C197.095 158.388 197.016 158.309 196.917 158.261C196.819 158.213 196.708 158.199 196.486 158.171L196.277 158.144H195.511" stroke="url(#paint1_linear_26_37)" stroke-width="0.514485"/>
<mask id="path-21-inside-2_26_37" fill="white">
<path d="M255.122 151.832H304.329V166.234H255.122V151.832Z"/>
</mask>
<path d="M303.429 151.832V166.234H305.229V151.832H303.429Z" fill="black" fill-opacity="0.08" mask="url(#path-21-inside-2_26_37)"/>
<rect x="255.122" y="151.832" width="34.803" height="14.4015" rx="7.20074" fill="#00A903" fill-opacity="0.12"/>
<path d="M262.972 160.027H262.194V158.673H260.79V157.975H262.194V156.606H262.972V157.975H264.369V158.673H262.972V160.027ZM266.554 160.646C265.365 160.646 264.551 159.991 264.494 158.925H265.38C265.43 159.509 265.884 159.861 266.554 159.861C267.173 159.861 267.562 159.552 267.562 159.076C267.562 158.608 267.18 158.32 266.546 158.32H265.761V157.607H266.546C267.058 157.607 267.367 157.283 267.367 156.887C267.367 156.469 267.029 156.16 266.525 156.16C266.013 156.16 265.625 156.484 265.56 156.981H264.667C264.767 156.016 265.516 155.382 266.554 155.382C267.533 155.382 268.232 155.944 268.232 156.729C268.232 157.326 267.821 157.787 267.216 157.917C267.958 158.054 268.404 158.529 268.404 159.199C268.404 160.056 267.67 160.646 266.554 160.646ZM269.65 159.465L268.829 161.964L268.174 161.763L268.966 159.257L269.65 159.465ZM271.854 160.639C270.652 160.639 269.852 159.602 269.852 157.996C269.852 156.426 270.63 155.382 271.854 155.382C273.05 155.382 273.849 156.405 273.849 157.996C273.849 159.573 273.071 160.639 271.854 160.639ZM271.854 159.84C272.538 159.84 272.978 159.12 272.978 157.996C272.978 156.887 272.538 156.174 271.854 156.174C271.163 156.174 270.724 156.887 270.724 157.996C270.724 159.12 271.163 159.84 271.854 159.84ZM275.957 160.639C274.899 160.639 274.157 160.02 274.049 159.069H274.927C275.007 159.566 275.396 159.861 275.965 159.861C276.685 159.861 277.102 159.257 277.139 158.198C277.146 158.111 277.146 158.025 277.139 157.939C277.016 158.457 276.534 158.839 275.828 158.839C274.783 158.839 274.049 158.126 274.049 157.118C274.049 156.095 274.812 155.382 275.878 155.382C277.189 155.382 277.938 156.433 277.938 158.039C277.938 159.638 277.203 160.639 275.957 160.639ZM275.914 158.111C276.447 158.111 276.908 157.758 276.908 157.132C276.908 156.498 276.454 156.145 275.921 156.145C275.381 156.145 274.913 156.505 274.906 157.125C274.906 157.751 275.374 158.111 275.914 158.111ZM283.305 155.483L279.668 160.74L279.041 160.438L282.671 155.187L283.305 155.483ZM279.286 158.061C278.58 158.061 278.083 157.521 278.083 156.743C278.083 155.936 278.58 155.382 279.286 155.382C279.999 155.382 280.496 155.922 280.496 156.7C280.496 157.499 279.999 158.061 279.286 158.061ZM279.286 157.478C279.625 157.478 279.862 157.168 279.862 156.714C279.862 156.268 279.632 155.958 279.293 155.958C278.955 155.958 278.717 156.268 278.717 156.721C278.717 157.168 278.955 157.478 279.286 157.478ZM282.995 160.639C282.282 160.639 281.785 160.092 281.785 159.314C281.785 158.507 282.282 157.953 282.995 157.96C283.701 157.967 284.198 158.507 284.198 159.278C284.198 160.078 283.701 160.639 282.995 160.639ZM282.995 160.056C283.334 160.056 283.571 159.746 283.571 159.293C283.571 158.846 283.334 158.536 283.002 158.536C282.657 158.536 282.419 158.846 282.419 159.3C282.419 159.746 282.657 160.056 282.995 160.056Z" fill="#00A903"/>
<path d="M334.906 160.111C334.906 161.662 333.709 162.657 331.806 162.72V164.233H330.785V162.67C328.932 162.418 327.735 161.347 327.634 159.809H329.185C329.298 160.565 329.865 161.094 330.785 161.296V158.599L330.533 158.523C329.5 158.208 327.886 157.755 327.886 156.028C327.886 154.641 328.983 153.608 330.785 153.52V152.108H331.806V153.57C333.495 153.822 334.541 154.906 334.642 156.532H333.104C333.054 155.763 332.613 155.196 331.806 154.969V157.439L332.348 157.603C333.596 157.994 334.906 158.448 334.906 160.111ZM329.386 155.952C329.386 156.658 330.029 156.872 330.785 157.112V154.868C329.928 154.931 329.386 155.322 329.386 155.952ZM331.806 158.901V161.372C332.827 161.321 333.369 160.893 333.369 160.187C333.369 159.494 332.827 159.217 331.97 158.952L331.806 158.901ZM338.679 162.72C336.46 162.72 335.15 161.548 335.15 160.111C335.15 159.091 335.855 158.309 337.002 157.931C336.07 157.528 335.553 156.759 335.553 155.902C335.553 154.616 336.713 153.52 338.679 153.52C340.632 153.52 341.779 154.604 341.779 155.902C341.779 156.746 341.262 157.515 340.342 157.931C341.489 158.296 342.182 159.091 342.182 160.111C342.182 161.523 340.922 162.72 338.679 162.72ZM338.679 157.439C339.637 157.439 340.292 156.898 340.292 156.116C340.292 155.36 339.637 154.831 338.679 154.831C337.721 154.831 337.065 155.36 337.065 156.116C337.065 156.898 337.721 157.439 338.679 157.439ZM338.679 161.347C339.889 161.347 340.62 160.716 340.62 159.935C340.62 159.166 339.889 158.523 338.679 158.523C337.469 158.523 336.725 159.166 336.725 159.935C336.725 160.716 337.469 161.347 338.679 161.347ZM344.368 160.666L342.932 165.039L341.785 164.686L343.171 160.3L344.368 160.666ZM348.226 162.72C346.121 162.72 344.722 160.905 344.722 158.095C344.722 155.347 346.083 153.52 348.226 153.52C350.318 153.52 351.717 155.309 351.717 158.095C351.717 160.855 350.356 162.72 348.226 162.72ZM348.226 161.321C349.423 161.321 350.192 160.061 350.192 158.095C350.192 156.154 349.423 154.906 348.226 154.906C347.016 154.906 346.247 156.154 346.247 158.095C346.247 160.061 347.016 161.321 348.226 161.321ZM355.495 162.531H353.982V155.965C353.566 156.545 352.898 156.847 351.991 156.847H351.89V155.398H351.991C353.302 155.398 353.995 154.856 353.995 153.835V153.709H355.495V162.531ZM361.983 162.531H360.471V160.565H356.186V159.229L360.458 153.709H361.983V159.204H363.508V160.565H361.983V162.531ZM360.471 155.776L357.824 159.204H360.471V155.776Z" fill="black"/>
<rect x="106.451" y="173.45" width="269.1" height="27.9052" rx="13.9526" stroke="black" stroke-opacity="0.05" stroke-width="0.900247"/>
<circle cx="119.955" cy="187.401" r="3.15086" fill="#6438D6"/>
<path d="M132.201 189.902H130.786L128.647 182.34H129.998L131.575 188.012L133.12 182.34H134.33L135.885 188.023L137.462 182.34H138.813L136.674 189.902H135.259L133.725 184.252L132.201 189.902ZM140.644 190.021C139.326 190.021 138.462 189.384 138.472 188.314C138.483 186.975 139.812 186.694 140.925 186.564C141.789 186.467 142.426 186.435 142.437 185.981C142.426 185.419 141.994 185.052 141.259 185.052C140.503 185.052 139.963 185.462 139.888 186.056H138.602C138.721 184.847 139.801 184.004 141.281 184.004C142.826 184.004 143.679 184.847 143.679 186.067V188.66C143.679 188.822 143.766 188.908 143.96 188.908H144.274V189.902H143.669C143.085 189.902 142.729 189.665 142.631 189.233C142.61 189.179 142.588 189.103 142.577 189.038C142.243 189.654 141.616 190.021 140.644 190.021ZM140.903 189.017C141.778 189.017 142.437 188.52 142.437 187.753V186.953C142.221 187.288 141.67 187.364 141.065 187.439C140.352 187.526 139.758 187.623 139.758 188.228C139.758 188.725 140.158 189.017 140.903 189.017ZM147.456 189.902H146.127L143.74 184.177H145.123L146.797 188.401L148.461 184.177H149.843L147.456 189.902ZM152.484 190.064C150.733 190.064 149.534 188.811 149.534 187.061C149.534 185.171 150.777 184.004 152.375 184.004C153.996 184.004 155.076 185.138 155.109 186.996V187.299H150.809C150.895 188.304 151.522 188.984 152.494 188.984C153.153 188.984 153.65 188.66 153.845 188.087H155.087C154.795 189.319 153.834 190.064 152.484 190.064ZM150.863 186.402H153.791C153.629 185.581 153.121 185.084 152.375 185.084C151.619 185.084 151.058 185.581 150.863 186.402ZM157.843 190.064C156.276 190.064 155.347 189.33 155.272 188.077H156.503C156.546 188.692 157.076 189.017 157.778 189.017C158.426 189.017 158.772 188.768 158.772 188.325C158.772 187.882 158.404 187.796 157.907 187.634L157.151 187.385C156.201 187.072 155.38 186.748 155.38 185.689C155.38 184.674 156.157 184.004 157.529 184.004C158.858 184.004 159.766 184.706 159.917 186.002H158.707C158.642 185.354 158.178 185.052 157.519 185.052C156.957 185.052 156.633 185.289 156.633 185.678C156.633 186.121 157.13 186.24 157.54 186.381L158.232 186.607C159.366 186.986 160.046 187.331 160.046 188.358C160.046 189.416 159.247 190.064 157.843 190.064Z" fill="black"/>
<path d="M180.507 186.404V186.404C180.757 186.404 180.882 186.404 180.992 186.363C181.075 186.333 181.151 186.287 181.216 186.227C181.301 186.147 181.358 186.035 181.472 185.813L182.326 184.14L183.221 182.723C183.825 181.767 184.127 181.289 184.53 181.325C184.933 181.361 185.145 181.885 185.569 182.934L186.313 184.775C186.755 185.869 186.976 186.416 187.389 186.445C187.802 186.474 188.097 185.963 188.687 184.94L189.149 184.14V184.14C189.531 183.448 189.721 183.102 189.92 183.011C190.164 182.9 190.452 182.947 190.648 183.13C190.808 183.28 190.878 183.668 191.02 184.446L191.327 186.136C191.352 186.274 191.365 186.343 191.372 186.37C191.541 186.992 192.409 187.031 192.632 186.426C192.642 186.4 192.661 186.332 192.698 186.197V186.197C192.718 186.125 192.728 186.088 192.736 186.066C192.91 185.576 193.554 185.468 193.878 185.874C193.892 185.893 193.914 185.924 193.956 185.986L195.517 188.257L196.482 189.804C197.058 190.729 197.347 191.191 197.742 191.165C198.138 191.139 198.363 190.642 198.812 189.65L200.272 186.424L200.541 185.63C201.093 184.002 201.369 183.188 201.854 183.198C202.339 183.208 202.581 184.032 203.066 185.682L203.912 188.564C203.947 188.683 203.965 188.742 203.989 188.793C204.083 188.984 204.263 189.119 204.473 189.155C204.528 189.164 204.59 189.164 204.714 189.164V189.164C204.847 189.164 204.913 189.164 204.972 189.175C205.193 189.214 205.379 189.364 205.465 189.571C205.488 189.626 205.502 189.691 205.531 189.82L205.715 190.655C206.047 192.163 206.213 192.917 206.676 192.976C207.138 193.035 207.488 192.346 208.188 190.97L208.921 189.53C209.387 188.612 209.621 188.154 210.004 188.135C210.388 188.116 210.665 188.55 211.218 189.418L211.565 189.963C212.092 190.791 212.356 191.205 212.715 191.208C212.746 191.208 212.776 191.206 212.805 191.202C213.162 191.157 213.375 190.714 213.801 189.83V189.83C214.134 189.136 214.301 188.789 214.603 188.714C214.628 188.708 214.654 188.703 214.681 188.699C214.989 188.661 215.27 188.924 215.832 189.45L215.993 189.6C216.181 189.777 216.276 189.865 216.393 189.912C216.51 189.958 216.639 189.958 216.898 189.958H218.307C218.692 189.958 218.885 189.958 219.041 189.864C219.198 189.771 219.289 189.601 219.472 189.262L219.702 188.836C219.998 188.287 220.146 188.012 220.36 187.921C220.497 187.863 220.649 187.853 220.793 187.892C221.017 187.953 221.201 188.205 221.568 188.71V188.71C221.698 188.888 221.763 188.977 221.848 189.038C221.904 189.079 221.965 189.11 222.031 189.131C222.131 189.164 222.241 189.164 222.461 189.164H223.719" stroke="url(#paint2_linear_26_37)" stroke-width="0.514485"/>
<mask id="path-31-inside-3_26_37" fill="white">
<path d="M256.268 180.203H305.781V194.605H256.268V180.203Z"/>
</mask>
<path d="M304.881 180.203V194.605H306.681V180.203H304.881Z" fill="black" fill-opacity="0.08" mask="url(#path-31-inside-3_26_37)"/>
<rect x="256.268" y="180.203" width="35.1096" height="14.4015" rx="7.20074" fill="#D40505" fill-opacity="0.12"/>
<path d="M267.308 187.044H264.089V186.346H267.308V187.044ZM269.515 189.01C268.313 189.01 267.513 187.973 267.513 186.367C267.513 184.797 268.291 183.753 269.515 183.753C270.711 183.753 271.51 184.776 271.51 186.367C271.51 187.944 270.732 189.01 269.515 189.01ZM269.515 188.211C270.2 188.211 270.639 187.491 270.639 186.367C270.639 185.258 270.2 184.545 269.515 184.545C268.824 184.545 268.385 185.258 268.385 186.367C268.385 187.491 268.824 188.211 269.515 188.211ZM272.625 187.836L271.804 190.336L271.149 190.134L271.941 187.628L272.625 187.836ZM274.794 189.018C273.742 189.018 272.964 188.384 272.835 187.361H273.749C273.829 187.887 274.253 188.225 274.801 188.225C275.413 188.225 275.78 187.793 275.78 187.246C275.78 186.713 275.42 186.274 274.815 186.274C274.484 186.274 274.203 186.403 273.944 186.677H272.979L273.425 183.861H276.421V184.646H274.138L273.915 186.079C274.189 185.777 274.585 185.568 275.082 185.568C276.004 185.568 276.652 186.259 276.652 187.239C276.652 188.29 275.895 189.018 274.794 189.018ZM282.005 183.854L278.368 189.111L277.742 188.809L281.372 183.558L282.005 183.854ZM277.987 186.432C277.281 186.432 276.784 185.892 276.784 185.114C276.784 184.307 277.281 183.753 277.987 183.753C278.7 183.753 279.197 184.293 279.197 185.071C279.197 185.87 278.7 186.432 277.987 186.432ZM277.987 185.849C278.325 185.849 278.563 185.539 278.563 185.085C278.563 184.639 278.332 184.329 277.994 184.329C277.655 184.329 277.418 184.639 277.418 185.092C277.418 185.539 277.655 185.849 277.987 185.849ZM281.696 189.01C280.983 189.01 280.486 188.463 280.486 187.685C280.486 186.879 280.983 186.324 281.696 186.331C282.401 186.338 282.898 186.879 282.898 187.649C282.898 188.449 282.401 189.01 281.696 189.01ZM281.696 188.427C282.034 188.427 282.272 188.117 282.272 187.664C282.272 187.217 282.034 186.907 281.703 186.907C281.357 186.907 281.119 187.217 281.119 187.671C281.119 188.117 281.357 188.427 281.696 188.427Z" fill="#D40505"/>
<path d="M333.257 188.482C333.257 190.033 332.06 191.028 330.157 191.091V192.604H329.136V191.041C327.283 190.789 326.086 189.718 325.985 188.18H327.535C327.648 188.936 328.216 189.466 329.136 189.667V186.97L328.884 186.894C327.85 186.579 326.237 186.126 326.237 184.399C326.237 183.013 327.333 181.979 329.136 181.891V180.479H330.157V181.941C331.845 182.193 332.891 183.277 332.992 184.903H331.455C331.404 184.134 330.963 183.567 330.157 183.34V185.811L330.698 185.974C331.946 186.365 333.257 186.819 333.257 188.482ZM327.737 184.323C327.737 185.029 328.379 185.243 329.136 185.483V183.239C328.279 183.302 327.737 183.693 327.737 184.323ZM330.157 187.273V189.743C331.177 189.692 331.719 189.264 331.719 188.558C331.719 187.865 331.177 187.588 330.32 187.323L330.157 187.273ZM339.26 190.902H337.748V188.936H333.462V187.6L337.735 182.08H339.26V187.575H340.785V188.936H339.26V190.902ZM337.748 184.147L335.101 187.575H337.748V184.147ZM342.879 189.037L341.442 193.41L340.295 193.058L341.682 188.672L342.879 189.037ZM346.736 191.091C344.632 191.091 343.233 189.276 343.233 186.466C343.233 183.718 344.594 181.891 346.736 181.891C348.829 181.891 350.228 183.681 350.228 186.466C350.228 189.226 348.866 191.091 346.736 191.091ZM346.736 189.692C347.934 189.692 348.703 188.432 348.703 186.466C348.703 184.525 347.934 183.277 346.736 183.277C345.527 183.277 344.758 184.525 344.758 186.466C344.758 188.432 345.527 189.692 346.736 189.692ZM354.131 191.091C352.026 191.091 350.627 189.276 350.627 186.466C350.627 183.718 351.989 181.891 354.131 181.891C356.223 181.891 357.622 183.681 357.622 186.466C357.622 189.226 356.261 191.091 354.131 191.091ZM354.131 189.692C355.328 189.692 356.097 188.432 356.097 186.466C356.097 184.525 355.328 183.277 354.131 183.277C352.921 183.277 352.152 184.525 352.152 186.466C352.152 188.432 352.921 189.692 354.131 189.692ZM361.463 191.104C359.623 191.104 358.262 189.995 358.035 188.205H359.635C359.774 189.125 360.518 189.718 361.475 189.718C362.547 189.718 363.19 188.961 363.19 188.004C363.19 187.071 362.559 186.302 361.501 186.302C360.921 186.302 360.429 186.529 359.976 187.008H358.287L359.068 182.08H364.311V183.454H360.316L359.925 185.962C360.404 185.432 361.097 185.067 361.967 185.067C363.58 185.067 364.715 186.277 364.715 187.991C364.715 189.831 363.391 191.104 361.463 191.104Z" fill="black"/>
<rect x="264.36" y="51.0039" width="73.8079" height="29.4039" rx="14.702" fill="black" fill-opacity="0.05"/>
<path d="M281.197 69.207H279.685V60.3846H284.159C285.961 60.3846 287.058 61.5819 287.058 63.1574C287.058 64.9345 285.823 66.0184 284.159 66.0184H281.197V69.207ZM281.197 61.7458V64.6572H284.083C285.029 64.6572 285.52 63.9514 285.52 63.1574C285.52 62.3255 284.953 61.7458 284.083 61.7458H281.197ZM289.117 69.207H287.629V62.5272H288.827L289.003 63.838C289.432 62.9305 290.213 62.4516 291.322 62.4516H291.574V63.901H291.322C289.936 63.901 289.117 64.6446 289.117 65.9049V69.207ZM294.826 69.3961C292.784 69.3961 291.385 67.9341 291.385 65.8923C291.385 63.6867 292.834 62.3255 294.7 62.3255C296.59 62.3255 297.851 63.6489 297.888 65.8167V66.1696H292.872C292.973 67.3417 293.704 68.1357 294.838 68.1357C295.607 68.1357 296.187 67.7576 296.414 67.0897H297.863C297.523 68.5264 296.401 69.3961 294.826 69.3961ZM292.935 65.1235H296.351C296.162 64.1656 295.569 63.5859 294.7 63.5859C293.817 63.5859 293.162 64.1656 292.935 65.1235ZM301.866 69.207H300.316L297.531 62.5272H299.144L301.098 67.4552L303.039 62.5272H304.652L301.866 69.207ZM305.683 61.6324C305.141 61.6324 304.725 61.2038 304.725 60.6619C304.725 60.1199 305.141 59.704 305.683 59.704C306.238 59.704 306.641 60.1199 306.641 60.6619C306.641 61.2038 306.238 61.6324 305.683 61.6324ZM306.427 69.207H304.939V62.5272H306.427V69.207ZM310.4 69.3961C308.359 69.3961 306.96 67.9341 306.96 65.8923C306.96 63.6867 308.409 62.3255 310.274 62.3255C312.165 62.3255 313.425 63.6489 313.463 65.8167V66.1696H308.447C308.548 67.3417 309.279 68.1357 310.413 68.1357C311.182 68.1357 311.761 67.7576 311.988 67.0897H313.438C313.097 68.5264 311.976 69.3961 310.4 69.3961ZM308.51 65.1235H311.925C311.736 64.1656 311.144 63.5859 310.274 63.5859C309.392 63.5859 308.737 64.1656 308.51 65.1235ZM316.832 69.207H315.269L313.29 62.5272H314.815L316.164 67.3669L317.487 62.5272H318.722L320.058 67.3165L321.382 62.5272H322.907L320.928 69.207H319.39L318.105 64.6446L316.832 69.207Z" fill="black"/>
<rect x="346.282" y="51.0039" width="28.8079" height="28.8079" rx="14.4039" fill="black" fill-opacity="0.05"/>
<rect x="77.1963" y="125.727" width="364.6" height="115.232" rx="18.6517" fill="url(#paint3_linear_26_37)"/>
</g>
</g>
<ellipse cx="39.501" cy="39" rx="19.5" ry="19" fill="#F3F0FC"/>
<g clip-path="url(#clip1_26_37)">
<path fill-rule="evenodd" clip-rule="evenodd" d="M33.5267 32.8844C33.5253 32.8796 33.524 32.8748 33.5227 32.87L33.2639 31.9041C32.7279 29.9036 33.9151 27.8473 35.9156 27.3113C37.9161 26.7753 39.9723 27.9625 40.5083 29.963L40.7672 30.9289C40.7685 30.9337 40.7697 30.9385 40.7709 30.9433C42.0243 30.6475 42.821 30.5777 43.5311 30.9042C44.5148 31.3564 45.0297 32.4302 46.0595 34.5777L47.8193 38.2473C49.2674 41.2671 49.9914 42.777 49.403 44.057C48.8145 45.337 47.197 45.7704 43.9621 46.6372L38.61 48.0713C35.375 48.9381 33.7576 49.3715 32.6079 48.5572C31.4583 47.7429 31.3304 46.0733 31.0746 42.734L30.7638 38.6762C30.5819 36.3015 30.4909 35.1141 31.1167 34.2306C31.5684 33.5929 32.2933 33.2549 33.5267 32.8844ZM34.7128 31.5159C34.3912 30.3156 35.1035 29.0818 36.3038 28.7602C37.5041 28.4386 38.7378 29.1509 39.0595 30.3512L39.3183 31.3171C39.3183 31.3171 39.3183 31.3171 39.3183 31.3171C39.2456 31.3366 39.1717 31.3564 39.0965 31.3765L35.1933 32.4224C35.1182 32.4425 35.0443 32.4623 34.9716 32.4818C34.9716 32.4818 34.9716 32.4818 34.9716 32.4818L34.7128 31.5159ZM41.7672 35.7487C42.1466 35.9149 42.3194 36.3572 42.1532 36.7366L39.5836 42.6015C39.498 42.7969 39.3332 42.9466 39.1305 43.0131C38.9278 43.0797 38.7064 43.0567 38.5216 42.95L36.0721 41.5358C35.7134 41.3287 35.5905 40.87 35.7976 40.5113C36.0047 40.1526 36.4634 40.0297 36.8221 40.2368L38.5455 41.2318L40.7793 36.1346C40.9455 35.7552 41.3878 35.5824 41.7672 35.7487Z" fill="#D4C5FB"/>
</g>
<defs>
<filter id="filter0_f_26_37" x="-278.999" y="-260" width="782" height="713" filterUnits="userSpaceOnUse" color-interpolation-filters="sRGB">
<feFlood flood-opacity="0" result="BackgroundImageFix"/>
<feBlend mode="normal" in="SourceGraphic" in2="BackgroundImageFix" result="shape"/>
<feGaussianBlur stdDeviation="150" result="effect1_foregroundBlur_26_37"/>
</filter>
<filter id="filter1_d_26_37" x="75.6205" y="20.6196" width="328.761" height="210.761" filterUnits="userSpaceOnUse" color-interpolation-filters="sRGB">
<feFlood flood-opacity="0" result="BackgroundImageFix"/>
<feColorMatrix in="SourceAlpha" type="matrix" values="0 0 0 0 0 0 0 0 0 0 0 0 0 0 0 0 0 0 127 0" result="hardAlpha"/>
<feMorphology radius="7.61955" operator="erode" in="SourceAlpha" result="effect1_dropShadow_26_37"/>
<feOffset/>
<feGaussianBlur stdDeviation="10"/>
<feComposite in2="hardAlpha" operator="out"/>
<feColorMatrix type="matrix" values="0 0 0 0 0.450749 0 0 0 0 0.450749 0 0 0 0 0.450749 0 0 0 0.1 0"/>
<feBlend mode="normal" in2="BackgroundImageFix" result="effect1_dropShadow_26_37"/>
<feBlend mode="normal" in="SourceGraphic" in2="effect1_dropShadow_26_37" result="shape"/>
</filter>
<filter id="filter2_d_26_37" x="78.8759" y="23.875" width="322.25" height="204.25" filterUnits="userSpaceOnUse" color-interpolation-filters="sRGB">
<feFlood flood-opacity="0" result="BackgroundImageFix"/>
<feColorMatrix in="SourceAlpha" type="matrix" values="0 0 0 0 0 0 0 0 0 0 0 0 0 0 0 0 0 0 127 0" result="hardAlpha"/>
<feMorphology radius="7.61955" operator="erode" in="SourceAlpha" result="effect1_dropShadow_26_37"/>
<feOffset/>
<feGaussianBlur stdDeviation="8.37229"/>
<feComposite in2="hardAlpha" operator="out"/>
<feColorMatrix type="matrix" values="0 0 0 0 0.0509804 0 0 0 0 0.0352941 0 0 0 0 0.121569 0 0 0 0.21 0"/>
<feBlend mode="normal" in2="BackgroundImageFix" result="effect1_dropShadow_26_37"/>
<feBlend mode="normal" in="SourceGraphic" in2="effect1_dropShadow_26_37" result="shape"/>
</filter>
<linearGradient id="paint0_linear_26_37" x1="181.726" y1="132.328" x2="219.914" y2="131.378" gradientUnits="userSpaceOnUse">
<stop stop-color="#A887FF" stop-opacity="0"/>
<stop offset="0.617569" stop-color="#A887FF"/>
<stop offset="1" stop-color="#A887FF" stop-opacity="0"/>
</linearGradient>
<linearGradient id="paint1_linear_26_37" x1="234.903" y1="157.882" x2="196.715" y2="158.832" gradientUnits="userSpaceOnUse">
<stop stop-color="#C958E2" stop-opacity="0"/>
<stop offset="0.617569" stop-color="#C958E2"/>
<stop offset="1" stop-color="#C958E2" stop-opacity="0"/>
</linearGradient>
<linearGradient id="paint2_linear_26_37" x1="180.728" y1="186.142" x2="219.318" y2="187.111" gradientUnits="userSpaceOnUse">
<stop stop-color="#6438D6" stop-opacity="0"/>
<stop offset="0.617569" stop-color="#6438D6"/>
<stop offset="1" stop-color="#6438D6" stop-opacity="0"/>
</linearGradient>
<linearGradient id="paint3_linear_26_37" x1="259.496" y1="125.727" x2="269.422" y2="196.9" gradientUnits="userSpaceOnUse">
<stop stop-color="white" stop-opacity="0"/>
<stop offset="1" stop-color="#F7F7FB"/>
</linearGradient>
<clipPath id="clip0_26_37">
<rect x="88.001" y="33" width="304" height="186" rx="14.4039" fill="white"/>
</clipPath>
<clipPath id="clip1_26_37">
<rect width="24" height="24" fill="white" transform="translate(24.001 29.2109) rotate(-15)"/>
</clipPath>
</defs>
</svg>
